<?xml version="1.0" encoding="utf-8"?>
<!-- Generator: Adobe Illustrator 23.0.1, SVG Export Plug-In . SVG Version: 6.00 Build 0)  -->
<svg version="1.1" id="Layer_1" xmlns="http://www.w3.org/2000/svg" xmlns:xlink="http://www.w3.org/1999/xlink" x="0px" y="0px"
	 viewBox="0 0 1704 800" enable-background="new 0 0 1704 800" xml:space="preserve">

<style>
#Cloud_1 {animation: cloudDrift_1 200s linear infinite;}
#Cloud_2 {animation: cloudDrift_2 250s linear infinite;}

#Yeti_Arm-R {
    animation: yetiWave_right 0.5s linear infinite;
    transform-origin: 47% 97%;
    animation-delay: 0.4s;
}
#Yeti_Arm-L {
    animation: yetiWave_left 0.5s linear infinite;
    transform-origin: 50% 90%;
    animation-delay: 0.4s;
}
#Yeti_worry{animation: yetiWorry 1s linear infinite;}
    
#Volcano_small {animation: volcanoWiggle 0.2s linear 2;}
#Volcano_medium {animation: volcanoWiggle 0.2s linear 2;}
    
#smoke_r1 {animation: smokeRise 10s ease-out infinite; animation-delay: 1s;}
#smoke_r2 {animation: smokeRise 12s linear infinite; animation-delay: 2s;}
#smoke_r3 {animation: smokeRise 15s ease-out infinite; animation-delay: 3s;}
#smoke_r4 {animation: smokeRise 12s linear infinite; animation-delay; 5s;}

#smoke_l1 {animation: smokeRise 10s ease-out infinite; animation-delay: 1s;}
#smoke_l2 {animation: smokeRise 12s linear infinite; animation-delay: 2s;}
#smoke_l3 {animation: smokeRise 15s ease-out infinite; animation-delay: 3s;}
#smoke_l4 {animation: smokeRise 12s linear infinite; animation-delay; 5s;}
    
@keyframes cloudDrift_1{
    30% { opacity: 1; transform: translateX(1000px);}
    31% { opacity: 0; }
    60% { opacity: 0; transform: translateX(-1500px); }
    61% { opacity: 1; }
    100% { transform: translateX(0px); }
}
@keyframes cloudDrift_2{
    30% { opacity: 1; transform: translateX(2000px);}
    31% { opacity: 0; }
    90% { opacity: 0; transform: translateX(-700px); }
    91% { opacity: 1; }
    100% { transform: translateX(0px); }
}
@keyframes volcanoWiggle{
    25% { transform: translateX(10px); }
    75% { transform: translateX(-10px); }
    100% { transform: translateX(0); }    
}
@keyframes yetiWave_right {
    25% { transform: rotate(5deg); }
    75% { transform: rotate(-5deg); }
    100% { transform: rotate(0deg); }
}
@keyframes yetiWave_left {
    25% { transform: rotate(-5deg); }
    75% { transform: rotate(5deg); }
    100% { transform: rotate(0deg); }
}
@keyframes yetiWorry {
    45% {opacity: 1; transform: translate(5px, -8px);}
    46%  {transform: translate(5px, -8px);}
    55% {opacity: 0;}
    60% {opacity: 0, transform: translate(0, 0);}
    99% {opacity: 0;}
    100% {opacity: 1;}
}
    
@keyframes smokeRise{
    1% {opacity: 1; }
    70% { opacity: 0; }
    100% { opacity: 0; transform: translateY(-550px); }
}
</style>
    
<g id="Background">
	<rect x="-0.63" y="0.583" fill="#facbaa" width="1705.034" height="800.703"/>
	<polygon fill="#f8b080" points="1704.365,803.001 -0.72,802 -0.72,704 1704.659,704.105 	"/>
	<path opacity="0.4" fill="#fce5d4" d="M458.205,751.103h-87.5c4.393,0,7.955-2.073,7.955-4.629s-3.562-4.629-7.955-4.629H211.614
		c-4.393,0-7.955,2.073-7.955,4.629s3.562,4.629,7.955,4.629h87.5c4.393,0,7.955,2.073,7.955,4.629s-3.561,4.629-7.955,4.629
		h-28.398c-4.393,0-7.955,2.073-7.955,4.629s3.562,4.629,7.955,4.629h159.091c4.393,0,7.955-2.073,7.955-4.629
		s-3.561-4.629-7.955-4.629h28.398c4.393,0,7.955-2.073,7.955-4.629S462.598,751.103,458.205,751.103z"/>
	<path opacity="0.4" fill="#fce5d4" d="M1644.002,764.99h-87.5c4.393,0,7.955-2.073,7.955-4.629c0-2.556-3.562-4.629-7.955-4.629
		h-159.091c-4.393,0-7.955,2.073-7.955,4.629c0,2.556,3.562,4.629,7.955,4.629h87.5c4.394,0,7.955,2.073,7.955,4.629
		c0,2.556-3.561,4.629-7.955,4.629h-28.398c-4.393,0-7.954,2.073-7.954,4.629c0,2.556,3.562,4.629,7.954,4.629h159.091
		c4.393,0,7.955-2.073,7.955-4.629c0-2.556-3.561-4.629-7.955-4.629h28.398c4.393,0,7.955-2.073,7.955-4.629
		C1651.956,767.062,1648.395,764.99,1644.002,764.99z"/>
</g>
    
<path id="Cloud_2" fill="#fce5d4" d="M412.181,232h-137.5c6.903,0,12.5-5.597,12.5-12.5s-5.597-12.5-12.5-12.5h-250
	c-6.903,0-12.5,5.597-12.5,12.5s5.597,12.5,12.5,12.5h137.5c6.904,0,12.5,5.597,12.5,12.5s-5.596,12.5-12.5,12.5h-44.626
	c-6.903,0-12.5,5.597-12.5,12.5s5.597,12.5,12.5,12.5h250c6.904,0,12.5-5.597,12.5-12.5s-5.596-12.5-12.5-12.5h44.625
	c6.903,0,12.5-5.597,12.5-12.5S419.084,232,412.181,232z"/>
<path id="Cloud_1" fill="#fce5d4" d="M1412.705,77.332h-137.5c6.903,0,12.5-5.597,12.5-12.5s-5.597-12.5-12.5-12.5H950.151
	c-6.902,0-12.5,5.597-12.5,12.5c0,6.903,5.598,12.5,12.5,12.5h137.502c6.902,0,12.5,5.597,12.5,12.5s-5.598,12.5-12.5,12.5h-44.627
	c-6.901,0-12.5,5.597-12.5,12.5s5.599,12.5,12.5,12.5h325.056c6.903,0,12.5-5.597,12.5-12.5s-5.597-12.5-12.5-12.5h44.625
	c6.903,0,12.5-5.597,12.5-12.5S1419.61,77.332,1412.705,77.332z"/>

<circle id="smoke_l1" fill="#f8b080" cx="171.632" cy="500" r="7.311"/>
<circle id="smoke_l2" fill="#f8b080" cx="226.064" cy="500" r="7.134"/>
<circle id="smoke_l3" fill="#f8b080" cx="190.085" cy="500" r="10.95"/>
<circle id="smoke_l4" fill="#f8b080" cx="270.995" cy="500" r="7.134"/>
    
<circle id="smoke_r1" fill="#f8b080" cx="1350.836" cy="450" r="9.487"/>
<circle id="smoke_r2" fill="#f8b080" cx="1394.839" cy="450" r="9.258"/>
<circle id="smoke_r3" fill="#f8b080" cx="1445.716" cy="450" r="14.21"/>
<circle id="smoke_r4" fill="#f8b080" cx="1472.821" cy="450" r="9.258"/>
    
<g id="Volcano_medium">
	<path fill="#7a3e16" d="M1492.115,402.462l65.261,92.84l147.142,209.322h-294.284h-294.284l147.142-209.322l65.264-92.843
		c0,0,54.973,7.211,82.271,7.211S1492.115,402.462,1492.115,402.462z"/>
	<path fill="#3d1f0b" d="M1410.235,704.624h-294.284l147.142-209.322l65.264-92.843c0,0,54.973,7.211,82.271,7.211L1410.235,704.624
		z"/>
	<path fill="#f37c2b" d="M1492.115,402.462l65.261,92.84l18.765,26.694c0,0-5.198,17.798-31.208,13.357
		c-26.01-4.44-46.423-48-73.954-42.671c-27.531,5.329-29.715,54.401-60.744,54.401c-28.909,0-9.964-55.605-41.935-59.158
		c-31.972-3.552-45.208,43.808-74.793,47.855c-14.85,2.031-42.756-22.921-42.756-22.921l12.342-17.558l65.264-92.843
		c0,0,55.081,7.081,82.379,6.934C1437.709,409.248,1492.115,402.462,1492.115,402.462z"/>
	<path fill="#f59655" d="M1410.736,409.393c26.973-0.145,81.38-6.931,81.38-6.931l65.261,92.84l18.765,26.694
		c0,0-5.198,17.798-31.208,13.357c-26.01-4.44-46.423-48-73.954-42.671c-27.531,5.329-29.715,54.401-60.744,54.401L1410.736,409.393
		z"/>
</g>
    
<g id="Volcano_large">
	
		<line id="Ground_x5F_line" fill="none" stroke="#3d1f0b" stroke-width="3" stroke-miterlimit="10" x1="85.283" y1="704" x2="1704.78" y2="704"/>
	<path fill="#7a3e16" d="M973.552,166.919l116.012,165.037l261.567,372.102H827.997H304.862L566.43,331.956l116.016-165.043
		c0,0,97.723,12.819,146.25,12.819S973.552,166.919,973.552,166.919z"/>
	<polygon fill="#3d1f0b" points="826.996,704.337 303.861,704.337 565.429,332.236 681.445,167.193 827.695,179.732 	"/>
	<path fill="#f59655" d="M1195.359,704.337c-0.62-7.142-58.7-37.419-85.744-66.9c-37.28-40.64-2.355-102.24-17.322-125.842
		c-13.978-22.045-61.58-47.599-69.45-85.235c-8.256-39.481-0.874-94.809-8.042-117.183
		C1004.92,278.33,909.15,174.177,909.15,174.177s-22.823,2.248-36.57,3.339c-19.324,1.533-45.886,2.216-45.886,2.216
		s100.893,94.303,116.471,137.144c8.341,22.939-12.126,67.57-5.336,104.888c5.891,32.378,80.564,79.294,89.611,112.588
		c10.748,39.555-19.639,71.99,10.34,114.886c24.34,34.826,70.605,48.014,70.605,55.099H1195.359z"/>
	<path fill="none" stroke="#3d1f0b" stroke-width="3" stroke-miterlimit="10" d="M973.552,166.919l116.012,165.037l261.567,372.102
		H827.997H304.862L566.43,331.956l116.016-165.043c0,0,97.723,12.819,146.25,12.819S973.552,166.919,973.552,166.919z"/>
	<path fill="#f37c2b" d="M1107.289,702.096c0,15.813-71.374,30.463-48.006,54.001c23.368,23.538,87.629,2.702,99.313,32.593
		c1.338,3.423,0.209,8.872-1.074,11.873h171.824c0.516-3.086,1.14-8.545,0.614-11.873c-3.895-24.634-133.901-16.43-157.269-39.627
		c-23.368-23.197,22.715-33.81,21.573-46.967H1107.289z"/>
</g>
    
<g id="Volcano_small">
	<path fill="#7a3e16" d="M284.783,475.932l49.497,70.414l111.599,158.759H222.681H-0.518l111.599-158.759l49.499-70.417
		c0,0,41.694,5.469,62.398,5.469S284.783,475.932,284.783,475.932z"/>
	<path fill="#3d1f0b" d="M222.681,705.166H-0.518l111.599-158.759l49.499-70.417c0,0,41.694,5.469,62.398,5.469L222.681,705.166z"/>
	<path fill="#f59655" d="M222.857,572.828c-21.062-2.721-18.087-39.689-44.888-39.689c-28.374,0-35.626,39.88-56.704,34.206
		c-21.078-5.674-17.833-10.002-17.833-10.002l7.688-10.937l49.499-70.417c0,0,41.396,4.786,62.1,4.787
		c21.045,0.001,62.102-4.784,62.102-4.784l49.497,70.414l12.025,17.106c0,0-2.36,18.383-22.7,7.03
		c-10.001-5.582-24.709-46.375-43.12-40.328C262.113,536.262,243.919,575.549,222.857,572.828z"/>
	<path fill="#f37c2b" d="M222.857,572.828c-21.062-2.721-18.087-39.689-44.888-39.689c-28.374,0-35.626,39.88-56.704,34.206
		c-21.078-5.674-17.833-10.002-17.833-10.002l7.688-10.937l49.499-70.417c0,0,41.396,4.786,62.1,4.787L222.857,572.828z"/>
</g>
    
<g id="Yeti_Arm-L">
	<path fill="#FFFFFF" d="M748.978,711.276c-7.912-0.724-12.338,1.592-18.425,2.17c-8.951,0.85-15.457-4.753-22.079-7.811
		c-6.622-3.058-18.332-13.206-27.431-22.007c-2.009-1.943-7.077-8.322-11.643-14.916c-1.052-1.52-0.334-13.221-3.245-5.691
		c-0.251,0.649-0.527-0.015-0.878-0.585c-0.281-0.457-0.554-0.908-0.816-1.351c-0.526-0.887,3.453-11.515-2.128-3.915
		c-1.166,1.589-0.884-1.191-1.03-2.594c-0.263-2.516,1.757-24.774-4.358-11.665c-4.851,10.399-9.136-24.845-10.102-30.521
		c-1.252-7.358,0.104-6.008-9.316-7.788c-10.336-1.953-41.368-11.143-56.917,8.304c-2.146,2.684-0.524,23.848-0.309,26.172
		c0.06,0.652,0.179,1.659,0.352,2.956c0.172,1.29-29.784-18.146,0.582,13.226c3.709,3.832,7.005,8.435,3.66,7.276
		c-0.576-0.199-7.585-3.029-7.53-1.195c0.037,1.241,9.706,11.274,9.997,12.492c0.559,2.344-7.529-2.376-6.807-0.021
		c0.702,2.292,9.781,11.018,10.68,13.405c3.425,9.102,8.43,19.195,16.168,32.577c2.788,4.822,8.347,11.769,15.269,19.737
		c1.917,2.206-9.146,1.963-5.727,4.135c3.865,2.456,15.221,6.54,17.01,8.504c20.756,22.796,39.58,49.622,50.531,58.206
		c17.169,15.341,77.629,19.336,77.629,19.336s12.93-32.835,17.504-54.881C784.191,752.786,761.873,712.456,748.978,711.276z"/>
	<path fill="#4F80BA" d="M647.684,612.824c0,0,7.116-22.084,2.567-20.509c-4.674,1.618-11.237,8.224-11.641,5.278
		c-1.327-9.654-0.198-22.064-4.246-22.102c-4.008-0.038-11.821,23.295-10.312,20.144c0,0-4.189-24.76-8.053-24.882
		c-4.345-0.137-12.017,24-12.017,24s-9.283-21.6-12.307-19.004c-1.414,1.214-1.774,11.48-3.187,20.552
		c-0.523,3.357-12.874-11.465-12.309-4.261c0.499,6.365,3.861,22.51,3.861,22.51L647.684,612.824z"/>
</g>
    
<g id="Yeti_Arm-R">
	<path fill="#FFFFFF" d="M966.871,707.207c7.873,1.072,11.665,4.324,17.466,6.254c8.531,2.839,16.13-1.159,23.269-2.651
		c7.14-1.492,20.83-8.75,31.674-15.282c2.394-1.442,8.766-6.519,14.696-11.919c1.367-1.244,3.296-12.808,4.441-4.817
		c0.099,0.688,0.517,0.103,0.987-0.373c0.377-0.382,0.743-0.76,1.099-1.133c0.711-0.747-0.778-11.997,2.953-3.336
		c0.78,1.81,1.129-0.962,1.587-2.296c0.822-2.393,3.853-24.536,6.867-10.388c2.391,11.223,14.484-22.158,16.701-27.471
		c2.873-6.888,1.248-5.878,10.827-5.496c10.51,0.419,42.814-1.565,53.597,20.879c1.488,3.097-4.847,23.356-5.579,25.572
		c-0.205,0.622-0.547,1.577-1.008,2.802c-0.458,1.218,33.099-10.991-3.539,12.757c-4.475,2.9-8.721,6.646-5.201,6.268
		c0.606-0.065,8.072-1.247,7.606,0.527c-0.315,1.201-11.991,8.805-12.548,9.927c-1.071,2.159,7.87-0.624,6.638,1.509
		c-1.199,2.076-12.007,8.538-13.418,10.663c-5.383,8.1-12.526,16.811-23.073,28.112c-3.8,4.072-10.778,9.593-19.313,15.802
		c-2.363,1.719,8.471,3.968,4.652,5.316c-4.318,1.525-16.302,2.953-18.486,4.465c-25.347,17.551-49.716,39.461-62.316,45.365
		c-20.177,11.092-79.988,1.401-79.988,1.401s-5.223-34.901-4.727-57.41C923.233,739.745,954.041,705.46,966.871,707.207z"/>
	<path fill="#4F80BA" d="M1087.694,634.029c0,0-1.972-23.118,2.107-20.562c4.191,2.626,9.102,10.538,10.158,7.758
		c3.462-9.109,5.15-21.455,9.103-20.583c3.914,0.863,6.286,25.355,5.523,21.946c0,0,9.645-23.186,13.437-22.437
		c4.265,0.842,6.318,26.086,6.318,26.086s13.899-18.963,16.262-15.754c1.105,1.5-0.85,11.585-1.512,20.743
		c-0.245,3.389,15.121-8.279,12.952-1.387c-1.916,6.09-8.819,21.067-8.819,21.067L1087.694,634.029z"/>
</g>
    
<path id="Yeti_body" fill="#FFFFFF" d="M979.92,734.48c-1.797-15.532-7.396-33.578-8.431-38.913c-1.138-5.868-1.896-30.744-1.31-46.971
	c0.034-0.929,6.67,1.701,6.696,0.76c0.027-0.934-6.226-6.428-6.208-7.371c0.028-1.405,10.259,4.187,10.104,2.776
	c-0.328-3.007-10.051-9.837-10.07-11.252c-0.14-10.403-1.022-20.88-3.49-29.934c-4.986-18.288-15.658-39.115-37.588-57.494
	c-24.341-20.398-59.742-22.918-100.49-27.833c-1.039-0.125-2.839-3.823-6.505-7.088c-32.649-29.084-9.585,4.344-11.7,3.993
	c-38.781-6.44-71.094-10.447-73.137-7.453c-4.416,6.473,31.196,33.974,31.196,33.974s-44.29,18.874-44.785,24.189
	c-0.495,5.315,34.194,16.951,39.008,18.542c-1.333,0.928-14.779,29.291-20.67,63.136c-0.278,1.599-0.544,3.209-0.796,4.826
	c-0.394,2.519-11.339,16.967-12.973,18.942c-3.27,3.952,11.022-4.496,10.662-1.091c-0.285,2.699-8.176,11.473-8.41,14.127
	c-0.231,2.623,8.048-3.982,7.861-1.434c-1.828,24.799-4.785,30.005-9.943,55.935c-2.259,11.356-3.228,37.198-3.624,61.154H725v24
	h257v-24h-0.58C984.328,771.459,981.697,749.838,979.92,734.48z"/>
    
<g id="Yeti_worry">
	<path id="Sweat_x5F_large_1_" fill="#CCEBF7" d="M985.111,512.199c7.813-4.335,16.789-3.085,20.05,2.791s-0.429,14.154-8.242,18.49
		c-7.813,4.335-34.398,5.17-34.398,5.17S977.298,516.534,985.111,512.199z"/>
	<path id="Sweat_x5F_medium_1_" fill="#CCEBF7" d="M951.984,514.226c0.192-4.902,3.677-8.746,7.785-8.585
		c4.107,0.161,7.281,4.265,7.089,9.168c-0.192,4.902-8.137,17.589-8.137,17.589S951.792,519.128,951.984,514.226z"/>
	<path id="Sweat_x5F_small_1_" fill="#CCEBF7" d="M978.824,546.347c2.603,1.623,3.611,4.708,2.251,6.889
		c-1.36,2.181-4.573,2.633-7.177,1.01c-2.603-1.623-7.032-9.87-7.032-9.87S976.221,544.723,978.824,546.347z"/>
</g>
    
<line id="Ground_front" fill="none" stroke="#471912" stroke-width="3" stroke-miterlimit="10" x1="445.879" y1="704" x2="-0.22" y2="704"/>
</svg>
