<?xml version="1.0" encoding="utf-8"?>
<!-- Generator: Adobe Illustrator 23.0.1, SVG Export Plug-In . SVG Version: 6.00 Build 0)  -->
<svg version="1.1" xmlns="http://www.w3.org/2000/svg" xmlns:xlink="http://www.w3.org/1999/xlink" x="0px" y="0px"
	 viewBox="0 0 20 28" style="enable-background:new 0 0 20 28;" xml:space="preserve">
<style type="text/css">
	.st0{fill:#D0D2D3;stroke:#0E0E51;stroke-miterlimit:10;}
	.st1{fill:none;stroke:#0E0E51;stroke-width:2;stroke-miterlimit:10;}
	.st2{fill:#0E0E51;}
</style>
<g id="Layer_1">
</g>
<g id="top_elements">
	<g>
		<g>
			<g>
				<path class="st0" d="M1.8,24c0,1.4,1.1,2.5,2.5,2.5h11.4c1.4,0,2.5-1.1,2.5-2.5V12.6c0-1.4-1.1-2.5-2.5-2.5H4.3
					c-1.4,0-2.5,1.1-2.5,2.5V24z"/>
			</g>
			<path class="st1" d="M5.2,10.1V6.3c0-2.7,2.2-4.8,4.8-4.8c2.7,0,4.8,2.2,4.8,4.8v3.8"/>
			<path class="st2" d="M12.3,16.6c0-1.3-1-2.3-2.3-2.3c-1.3,0-2.3,1-2.3,2.3c0,0.9,0.5,1.7,1.3,2.1l-0.7,3.6h3.5L11,18.7
				C11.8,18.3,12.3,17.5,12.3,16.6z"/>
		</g>
	</g>
</g>
</svg>
