<?xml version="1.0" encoding="utf-8"?>
<!-- Generator: Adobe Illustrator 24.0.1, SVG Export Plug-In . SVG Version: 6.00 Build 0)  -->
<svg version="1.1" id="Layer_1" xmlns="http://www.w3.org/2000/svg" xmlns:xlink="http://www.w3.org/1999/xlink" x="0px" y="0px"
	 viewBox="0 0 25 25" style="enable-background:new 0 0 25 25;" xml:space="preserve">
<style type="text/css">
	.st0{fill:#F1F2F2;stroke:#A1B1BF;stroke-width:2;stroke-miterlimit:10;}
	.st1{fill:none;}
</style>
<g>
	<g id="graphics">
	</g>
	<g id="Isolation_Mode">
		<g>
			<g>
				<path class="st0" d="M1.6,20.1c0,1.8,1.5,3.3,3.3,3.3h15.3c1.8,0,3.3-1.5,3.3-3.3V4.9c0-1.8-1.5-3.3-3.3-3.3H4.9
					c-1.8,0-3.3,1.5-3.3,3.3C1.6,4.9,1.6,20.1,1.6,20.1z"/>
			</g>
			<g>
				<path class="st1" d="M20.1,24.5H4.9c-2.4,0-4.4-2-4.4-4.4V4.9c0-2.4,2-4.4,4.4-4.4h15.3c2.4,0,4.4,2,4.4,4.4v15.3
					C24.5,22.5,22.5,24.5,20.1,24.5z M4.9,2.7c-1.2,0-2.2,1-2.2,2.2v15.3c0,1.2,1,2.2,2.2,2.2h15.3c1.2,0,2.2-1,2.2-2.2V4.9
					c0-1.2-1-2.2-2.2-2.2H4.9L4.9,2.7z"/>
			</g>
		</g>
	</g>
</g>
<g id="graphics_1_">
</g>
</svg>
