<?xml version="1.0" encoding="utf-8"?>
<!-- Generator: Adobe Illustrator 24.0.0, SVG Export Plug-In . SVG Version: 6.00 Build 0)  -->
<svg version="1.1" xmlns="http://www.w3.org/2000/svg" xmlns:xlink="http://www.w3.org/1999/xlink" x="0px" y="0px"
	 viewBox="0 0 25 25" style="enable-background:new 0 0 25 25;" xml:space="preserve">
<style type="text/css">
	.st0{fill-rule:evenodd;clip-rule:evenodd;fill:#CCF28B;stroke:#215089;stroke-miterlimit:10;}
	.st1{fill:#2E70BE;}
</style>
<g id="Layer_1">
</g>
<g id="graphics">
	<g>
		<circle class="st0" cx="12.5" cy="12.5" r="10"/>
		<g>
			<path class="st1" d="M10.5,16.2l0.7-4.1H9.9l0.3-1.7h3.5l-1.1,5.9c-0.1,0.7,0.1,0.9,0.6,0.9c0.3,0,0.6-0.1,0.9-0.2l-0.3,1.6
				c-0.4,0.1-0.9,0.2-1.3,0.2C10.6,18.8,10.3,17.5,10.5,16.2z M11.5,7.7c0-0.8,0.6-1.4,1.4-1.4c0.8,0,1.4,0.6,1.4,1.4
				c0,0.8-0.6,1.4-1.4,1.4C12.2,9.1,11.5,8.5,11.5,7.7z"/>
		</g>
	</g>
</g>
</svg>
