<?xml version="1.0" encoding="utf-8"?>
<!-- Generator: Adobe Illustrator 23.0.4, SVG Export Plug-In . SVG Version: 6.00 Build 0)  -->
<svg version="1.1" xmlns="http://www.w3.org/2000/svg" xmlns:xlink="http://www.w3.org/1999/xlink" x="0px" y="0px"
	 viewBox="0 0 25 25" style="enable-background:new 0 0 25 25;" xml:space="preserve">
<style type="text/css">
	.st0{fill:#FFFFFF;}
	.st1{fill:#BA0C70;}
</style>
<g id="Layer_1">
	<g id="graphics">
	</g>
	<g id="Isolation_Mode">
		<g>
			<g>
				<path class="st0" d="M1.6,20.1c0,1.8,1.5,3.3,3.3,3.3h15.3c1.8,0,3.3-1.5,3.3-3.3V4.9c0-1.8-1.5-3.3-3.3-3.3H4.9
					c-1.8,0-3.3,1.5-3.3,3.3C1.6,4.9,1.6,20.1,1.6,20.1z"/>
			</g>
			<g>
				<path class="st1" d="M20.1,24.5H4.9c-2.4,0-4.4-2-4.4-4.4V4.9c0-2.4,2-4.4,4.4-4.4h15.3c2.4,0,4.4,2,4.4,4.4v15.3
					C24.5,22.5,22.5,24.5,20.1,24.5z M4.9,2.7c-1.2,0-2.2,1-2.2,2.2v15.3c0,1.2,1,2.2,2.2,2.2h15.3c1.2,0,2.2-1,2.2-2.2V4.9
					c0-1.2-1-2.2-2.2-2.2L4.9,2.7L4.9,2.7z"/>
			</g>
		</g>
		<g>
			<path class="st1" d="M7.5,15.8c0,0.9,0.7,1.7,1.7,1.7h6.7c0.9,0,1.7-0.7,1.7-1.7V9.2c0-0.9-0.7-1.7-1.7-1.7H9.2
				c-0.9,0-1.7,0.7-1.7,1.7V15.8z"/>
		</g>
	</g>
</g>
<g id="Isolation_Mode_1_">
</g>
</svg>
