<?xml version="1.0" encoding="utf-8"?>
<!-- Generator: Adobe Illustrator 23.0.1, SVG Export Plug-In . SVG Version: 6.00 Build 0)  -->
<svg version="1.1" id="Layer_1" xmlns="http://www.w3.org/2000/svg" xmlns:xlink="http://www.w3.org/1999/xlink" x="0px" y="0px"
	 viewBox="0 0 20 30" style="enable-background:new 0 0 20 30;" xml:space="preserve">
<style type="text/css">
	.st0{fill:#BA0C70;}
	.st1{fill:#FFFFFF;}
	.st2{fill:#DB2886;}
</style>
<g id="graphics">
	<g>
		<path class="st0" d="M19.5,10.8c0-5.2-4.3-9.5-9.5-9.5s-9.5,4.3-9.5,9.5v16.8c0,0.6,0.5,1.1,1.1,1.1c9.5,0,17.3-7.5,17.8-16.9
			C19.5,11.5,19.5,11.1,19.5,10.8z"/>
		<path class="st1" d="M13.7,5.6c-2,0-3.7,1.7-3.7,3.7c0-2-1.6-3.7-3.7-3.7c-2,0-3.7,1.7-3.7,3.7c0,3.2,3.3,6.9,7.4,6.9
			s7.4-3.7,7.4-6.9C17.4,7.3,15.7,5.6,13.7,5.6z"/>
		<path class="st2" d="M14.9,9.3c0,0.7-0.6,1.2-1.2,1.2c-0.7,0-1.2-0.6-1.2-1.2C12.4,8.6,13,8,13.7,8S14.9,8.6,14.9,9.3z"/>
		<path class="st2" d="M10.8,12.2c0,0.8-0.8,1.5-0.8,1.5S9.2,13,9.2,12.2s0.3-1.5,0.8-1.5C10.4,10.7,10.8,11.4,10.8,12.2z"/>
		<path class="st2" d="M7.6,9.3c0,0.7-0.6,1.2-1.2,1.2c-0.7,0-1.2-0.6-1.2-1.2C5.1,8.6,5.6,8,6.3,8S7.6,8.6,7.6,9.3z"/>
	</g>
</g>
</svg>
