<?xml version="1.0" encoding="utf-8"?>
<!-- Generator: Adobe Illustrator 23.0.1, SVG Export Plug-In . SVG Version: 6.00 Build 0)  -->
<svg version="1.1" xmlns="http://www.w3.org/2000/svg" xmlns:xlink="http://www.w3.org/1999/xlink" x="0px" y="0px"
	 viewBox="0 0 20 30" style="enable-background:new 0 0 20 30;" xml:space="preserve">
<style type="text/css">
	.st0{fill:#A1B1BF;}
	.st1{fill:#FFFFFF;}
</style>
<g id="Layer_1">
</g>
<g id="Isolation_Mode">
	<g>
		<path class="st0" d="M19.5,10.8c0-5.2-4.3-9.5-9.5-9.5c-5.2,0-9.5,4.3-9.5,9.5v16.8c0,0.6,0.5,1.1,1.1,1.1
			c9.5,0,17.3-7.5,17.8-16.9C19.5,11.5,19.5,11.1,19.5,10.8z"/>
		<path class="st1" d="M13.7,5.6c-2,0-3.7,1.6-3.7,3.7c0-2-1.6-3.7-3.7-3.7c-2,0-3.7,1.6-3.7,3.7c0,3.2,3.3,6.9,7.4,6.9
			c4.1,0,7.4-3.7,7.4-6.9C17.4,7.3,15.7,5.6,13.7,5.6z"/>
	</g>
</g>
</svg>
