<?xml version="1.0" encoding="utf-8"?>
<!-- Generator: Adobe Illustrator 23.0.1, SVG Export Plug-In . SVG Version: 6.00 Build 0)  -->
<svg version="1.1" id="Layer_1" xmlns="http://www.w3.org/2000/svg" xmlns:xlink="http://www.w3.org/1999/xlink" x="0px" y="0px"
	 viewBox="0 0 110 100" enable-background="new 0 0 110 100" xml:space="preserve">
<g id="graphics">
	<g>
		<polygon fill="#6ECCF6" points="83.059,5 83.059,16.006 72.053,16.006 72.053,27.015 61.045,27.015 61.045,38.022 50.036,38.022 
			50.036,49.029 50.036,49.029 50.036,49.031 50.036,49.029 39.029,49.029 39.029,60.037 39.029,60.037 39.029,60.037 
			39.029,60.037 28.02,60.037 28.02,71.045 28.022,71.045 28.02,71.045 28.02,71.045 17.012,71.045 17.012,82.05 17.012,82.05 
			17.012,82.05 6.006,82.05 6.006,93.062 17.012,93.062 81.479,93.062 63.299,78.674 61.003,61.922 65,49.642 82.191,42.769 
			94.068,42.632 94.068,5 		"/>
		<path fill="#2E70BE" d="M52.726,67.319c0-16.928,12.837-27.68,28.562-27.68c11.072,0,18.051,5.616,22.063,11.955l-9.387,5.134
			c-2.487-3.771-7.06-6.979-12.676-6.979c-9.789,0-16.849,7.461-16.849,17.57c0,10.107,7.06,17.573,16.849,17.573
			c4.733,0,9.147-2.087,11.313-4.096V74.38H78.479v-9.949h25.515v20.54C98.539,91.067,90.917,95,81.288,95
			C65.562,95,52.726,84.168,52.726,67.319z"/>
	</g>
</g>
</svg>
