<?xml version="1.0" encoding="utf-8"?>
<!-- Generator: Adobe Illustrator 24.0.0, SVG Export Plug-In . SVG Version: 6.00 Build 0)  -->
<svg version="1.1" id="Layer_1" xmlns="http://www.w3.org/2000/svg" xmlns:xlink="http://www.w3.org/1999/xlink" x="0px" y="0px"
	 viewBox="0 0 635 500" style="enable-background:new 0 0 635 500;" xml:space="preserve">
<style type="text/css">
	.st0{fill:#F7F7F7;}
	.st1{fill:#C6EAFB;}
	.st2{fill:#FFFFFF;}
	.st3{fill:#2E70BE;stroke:#FBFBFB;stroke-width:1.0951;stroke-miterlimit:10;}
	.st4{fill:#0E0E51;}
	.st5{fill:#DD5463;}
	.st6{fill:none;stroke:#F2BFD1;stroke-width:0.5475;stroke-miterlimit:10;}
	.st7{fill:none;stroke:#F1F1F1;stroke-width:1.0951;stroke-miterlimit:10;}
	.st8{fill:#1B2342;stroke:#F1F1F1;stroke-width:1.0951;stroke-miterlimit:10;}
	.st9{fill:#DEE3E5;}
	.st10{opacity:0.3;fill:#FF9087;enable-background:new    ;}
	.st11{opacity:0.24;fill:#FF9087;enable-background:new    ;}
	.st12{fill:none;stroke:#FF9087;stroke-width:2.7741;stroke-linecap:round;stroke-linejoin:round;stroke-miterlimit:10;}
	.st13{fill:none;stroke:#FFFFFF;stroke-width:2.7741;stroke-linecap:round;stroke-linejoin:round;}
	
		.st14{opacity:0.3;fill:#5AAF6F;stroke:#F7F7F7;stroke-width:4.7303;stroke-linecap:round;stroke-linejoin:round;stroke-miterlimit:10;enable-background:new    ;}
	.st15{fill:none;stroke:#5AAF6F;stroke-width:3.1535;stroke-linecap:round;stroke-linejoin:round;stroke-miterlimit:10;}
	.st16{fill:#5AAF6F;stroke:#5AAF6F;stroke-width:3.1535;stroke-miterlimit:10;}
	
		.st17{opacity:0.4;fill:#FFDB45;stroke:#FFDB45;stroke-width:4.302;stroke-linecap:round;stroke-linejoin:round;stroke-miterlimit:10;enable-background:new    ;}
	.st18{fill:none;stroke:#FFDB45;stroke-width:4.302;stroke-linecap:round;stroke-linejoin:round;stroke-miterlimit:10;}
	
		.st19{opacity:0.76;fill:none;stroke:#FFDB45;stroke-width:4.302;stroke-linecap:round;stroke-linejoin:round;stroke-miterlimit:10;enable-background:new    ;}
	
		.st20{opacity:0.25;fill:#2E70BE;stroke:#2E70BE;stroke-width:3.1678;stroke-linecap:round;stroke-linejoin:round;stroke-miterlimit:10;enable-background:new    ;}
	.st21{fill:none;stroke:#2E70BE;stroke-width:3.1678;stroke-linecap:round;stroke-linejoin:round;stroke-miterlimit:10;}
	.st22{fill:#2E70BE;stroke:#2E70BE;stroke-width:3.1678;stroke-linecap:round;stroke-linejoin:round;stroke-miterlimit:10;}
	.st23{fill:#6ECCF6;}
	.st24{fill:#2E70BE;}
</style>
<g id="Layer_1_1_">
</g>
<g id="top_elements">
	<g>
		<rect class="st0" width="635" height="500"/>
		<g>
			<circle class="st1" cx="304.8" cy="225.1" r="43.3"/>
			<g>
				<circle class="st1" cx="222.7" cy="306.1" r="43.3"/>
				<circle class="st1" cx="257.7" cy="260.2" r="43.3"/>
				<circle class="st1" cx="354.1" cy="248.1" r="43.3"/>
				<circle class="st1" cx="402.3" cy="299.6" r="43.3"/>
				<circle class="st1" cx="441.7" cy="334.6" r="43.3"/>
				<circle class="st1" cx="188.8" cy="334.6" r="43.3"/>
				<polygon class="st1" points="189.3,377.9 442.3,377.9 438.1,322.8 197.9,306.7 				"/>
			</g>
		</g>
		<g>
			<g id="Yeti_x5F_Body_2_">
				<path class="st2" d="M274,376.8c1.8-3,3.3-4.4,4.4-3.3l1.1,7.5c1,1.9,2.6-4.5,3.9-2.8c5.9,7.6,1.5-10.1,2.3,10.7l86.5-1.1
					l11.6-59.7c-2.7-6.2-14.9-52.9-15.4-55.2c-0.5-2.6-0.1-8.5,0-15.7c0-0.4,2.9,0.7,2.9,0.3c0-0.4-2.7-2.8-2.7-3.2
					c0-0.6,4.4,1.8,4.4,1.1c-0.2-1.3-4.4-4.3-4.4-4.9c-0.1-4.6-0.6-9.3-1.7-13.2c-2.3-8.1-7-17.2-16.6-25.2
					c-10.6-8.8-25.8-9.7-43.3-11.5c-0.4,0-1.2-1.7-2.8-3.1c-14.2-12.6-4.1,2-5,1.9c-16.7-2.5-30.6-4-31.4-2.7
					c-1.8,2.9,13.6,14.8,13.6,14.8s-18.8,8.7-19,11.1c-0.2,2.4,14.8,7.2,16.9,7.9c-0.6,0.4-6.1,13.1-8.4,28.2
					c-0.1,0.7-0.2,1.4-0.3,2.1c-0.1,1.1-4.7,7.6-5.4,8.5c-1.4,1.8,4.7-2.1,4.6-0.6c-0.1,1.2-3.4,5.2-3.5,6.3
					c-0.1,1.2,3.4-1.8,3.4-0.7c-0.6,11-0.9,15.4-1.2,16.3l-3.3,58.1c4.2,3.4,4.6,8.9,6.1,17C271.5,368.3,273,378.5,274,376.8z"/>
				<path class="st3" d="M288.6,249.5c-3,4.8-3.7,26.3,0.3,32.2c3.9,5.9,6.9,10.7,32.4,8.8c25.5-1.8,25.8-4.1,30.4-9.9
					s-1.2-37.1-4.6-39.3s-16.6,10.2-19,10s1.4-3.7-0.3-6.7s-23.9,8.8-24.3,6c-0.4-2.5,4.2-6,4.2-8.3
					C307.7,238.2,291.3,245.1,288.6,249.5z"/>
				<ellipse class="st4" cx="307.4" cy="270.2" rx="3.7" ry="3.8"/>
				<ellipse class="st4" cx="333.2" cy="269.1" rx="3.7" ry="3.8"/>
				<path class="st4" d="M303.5,278.4c-0.2,0.2,6,7.5,19.3,5.8c8.8-1.2,14.8-8.2,14.6-8.7C337.1,274.9,303.7,278.2,303.5,278.4z"/>
				<g>
					
						<ellipse transform="matrix(0.9887 -0.1498 0.1498 0.9887 -36.6183 54.2524)" class="st5" cx="341.8" cy="270.2" rx="3.6" ry="1.8"/>
					<line class="st6" x1="341" y1="269.4" x2="340.1" y2="270.8"/>
					<line class="st6" x1="342.2" y1="269.3" x2="341.3" y2="270.7"/>
					<line class="st6" x1="343.3" y1="269.1" x2="342.4" y2="270.5"/>
				</g>
				<g>
					
						<ellipse transform="matrix(0.9887 -0.1498 0.1498 0.9887 -37.6539 47.7167)" class="st5" cx="297.9" cy="273.8" rx="3.6" ry="1.8"/>
					<line class="st6" x1="297.1" y1="273" x2="296.2" y2="274.4"/>
					<line class="st6" x1="298.3" y1="272.9" x2="297.5" y2="274.3"/>
					<line class="st6" x1="299.4" y1="272.8" x2="298.6" y2="274.1"/>
				</g>
				<polygon class="st7" points="311,278.2 312,281.1 312.4,278 				"/>
				<polygon class="st8" points="327.9,276.6 328.9,279.5 329.3,276.4 				"/>
			</g>
			<g id="Yeti_x5F_Arm_3_">
				<path class="st2" d="M369.1,327.7c2.2,1.8,4,2.1,6,3.2c2.9,1.6,3.4,4.4,4.7,6.5c1.2,2.1,2.3,7.2,2.9,11.3
					c0.1,0.9,0.1,3.6-0.1,6.2c-0.1,0.6-3.1,3.5-0.4,2.1c0.2-0.1,0.2,0.1,0.1,0.3c0,0.2-0.1,0.3-0.1,0.5c-0.1,0.3-3.8,2.3-0.3,1.4
					c0.7-0.2,0,0.5-0.3,0.9c-0.5,0.7-6.5,6.1-1.5,3.9c3.9-1.7-3.3,8.3-4.3,10c-1.4,2.2-13.5,4.8-11.1,7.2c2.6,2.6,14.8,3.9,24.1,2
					c1.3-0.3,12.7-1.9,13.2-2.6c0.1-0.2,0.3-0.5,0.6-0.8c0.3-0.4,4.5,10.8,3-3.5c-0.2-1.7-0.1-3.6,0.7-2.6c0.1,0.2,1.5,2.3,1.9,1.8
					c0.3-0.3-0.2-4.9,0-5.3c0.4-0.7,1.7,2.1,2,1.4s-0.3-4.8,0.1-5.6c1.2-3.1,2.1-6.7,3-11.7c0.3-1.8,0.4-4.7,0.2-8.2
					c0-1,3.2,1.4,2.7,0.1c-0.6-1.4-2.9-4.8-3-5.7c-0.7-10.1-11.4-19.9-12.6-24.4c-4.4-7.1-24.1-18.7-24.1-18.7s-6.2,2.1-12.9,6.9
					C356.9,309.2,365.6,324.8,369.1,327.7z"/>
			</g>
			<g id="Yeti_x5F_Arm_4_">
				<path class="st2" d="M286.1,333.9c-3.2,1-5.4,0.7-8,1.2c-3.8,0.6-5.9,3-8.2,4.6s-6,5.8-8.7,9.4c-0.6,0.8-1.9,3.2-3,5.7
					c-0.2,0.6,1.5,4-0.6,2c-0.2-0.2-0.2,0.1-0.3,0.3c-0.1,0.2-0.1,0.3-0.2,0.5c-0.1,0.3,2.9,3.1-0.4,1.4c-0.7-0.4-0.2,0.4-0.1,0.9
					c0.2,0.8,3.9,7.3-0.4,4c-3.3-2.7-0.7,8.4-0.4,10.2c0.4,2.4,5.5,6.1,1.8,7.6c-4.1,1.6-20.6,3.2-29.5-1.2
					c-1.2-0.6-3.2-7.2-3.4-7.9c-0.1-0.2-0.1-0.5-0.2-0.9c-0.1-0.4-10.1,8.4-1.4-4.1c1.1-1.5,1.9-3.2,0.6-2.6c-0.2,0.1-2.8,1.7-3,1.1
					c-0.1-0.4,2.6-4.4,2.6-4.8c-0.1-0.8-2.8,1.5-2.8,0.7s2.7-4.3,2.8-5.1c0.3-3.1,1.1-6.6,2.6-11.5c0.6-1.7,2-4.4,3.9-7.5
					c0.5-0.9-4.1,0.3-2.9-0.7c1.3-1.1,5.5-3.5,6-4.3c5.8-9,10.3-18.9,13.8-22.6c5.2-6.3,24.6-13.2,24.6-13.2s14.9,8.3,19.6,14.5
					C295.6,317.8,291.3,332.2,286.1,333.9z"/>
			</g>
		</g>
		<path class="st9" d="M381.6,388.6H256.4c-6.5,0-11.9-5.4-11.9-11.9v-80.2c0-6.5,5.4-11.9,11.9-11.9h125.1
			c6.5,0,11.9,5.4,11.9,11.9v80.2C393.5,383.2,388.1,388.6,381.6,388.6z"/>
		<g id="组_1" transform="translate(-331 -251)">
			<circle id="椭圆_1" class="st10" cx="523.5" cy="401.3" r="20"/>
			<circle id="椭圆_2" class="st11" cx="523.5" cy="401.3" r="10.4"/>
			<line id="直线_1" class="st12" x1="523.5" y1="377.6" x2="523.5" y2="383.5"/>
			<line id="直线_2" class="st12" x1="523.5" y1="419" x2="523.5" y2="424.9"/>
			<line id="直线_3" class="st12" x1="541.2" y1="402.7" x2="547.1" y2="402.7"/>
			<line id="直线_4" class="st12" x1="499.8" y1="402.7" x2="505.7" y2="402.7"/>
			<circle id="椭圆_3" class="st12" cx="523.5" cy="401.3" r="1.5"/>
			<path id="路径_2" class="st12" d="M551.1,370.2l-4.3,4.3v3.5l4.3-4.3V370.2z"/>
			<path id="路径_3" class="st12" d="M554.5,373.6l-4.3,4.3h-3.5l4.3-4.3H554.5z"/>
			<circle id="椭圆_17" class="st13" cx="523.5" cy="401.3" r="10.4"/>
			<line id="直线_5" class="st12" x1="523.5" y1="401.3" x2="548.6" y2="376.1"/>
		</g>
		<g id="组_12" transform="translate(-185.113 40.025)">
			<path id="路径_22" class="st14" d="M249.8,260.4h-7.2c0.4,4.3,3.3,7.9,7.3,9.2c0.3,0.1,0.6,0.1,0.9,0.1h37.6c0.1,0,0.3,0,0.4,0
				c-3.9-0.2-7-5.3-7-9.3L249.8,260.4L249.8,260.4z"/>
			<path id="路径_24" class="st14" d="M297.4,212.2v48.6c0,4.8-3.7,8.7-8.5,8.9c-3.9-0.2-7-5.3-7-9.3h-32v-48.2
				c0-0.2,0.1-0.3,0.3-0.3H297C297.2,211.8,297.4,212,297.4,212.2L297.4,212.2z"/>
			<path id="路径_26" class="st15" d="M259.9,242.7l9-9.2l9.1,9.2l7.9-13.2"/>
			<circle id="椭圆_8" class="st16" cx="259.4" cy="242.9" r="2.2"/>
			<circle id="椭圆_9" class="st16" cx="286" cy="229.6" r="2.2"/>
		</g>
		<g id="组_31" transform="translate(11.877 197)">
			<path id="路径_68" class="st17" d="M505.4,78.3h49.4v35.5h-49.4V78.3z"/>
			<g id="组_27">
				<g id="组_26">
					<path id="路径_51" class="st18" d="M561.8,120.9c-3.8,2.5-9,1.3-11.4-2.5c-2.5-3.8-1.3-9,2.5-11.4c3.8-2.5,9-1.3,11.4,2.5
						c0.8,1.3,1.3,2.9,1.3,4.5C565.6,116.8,564.2,119.4,561.8,120.9z"/>
					<path id="路径_52" class="st18" d="M561.8,120.9v5.4l-4.2-1.9l-5,1.9v-5.5C555.4,122.7,559,122.7,561.8,120.9L561.8,120.9z"
						/>
				</g>
			</g>
			<line id="直线_18" class="st19" x1="505.4" y1="87.3" x2="554.5" y2="87.3"/>
		</g>
		<g>
			<polygon class="st20" points="488.1,198.4 475.7,173.7 471.4,182.3 461.6,163.1 450.8,184 445.7,173.7 433.3,198.4 443.3,198.4 
				443.3,198.4 479.8,198.4 479.8,198.4 			"/>
			<line class="st21" x1="461.1" y1="147" x2="461.1" y2="164.9"/>
			<polygon class="st22" points="461.1,145.2 473.7,149.7 461.1,154.2 			"/>
			<circle class="st22" cx="447.6" cy="189.2" r="0.9"/>
			<circle class="st22" cx="462.9" cy="181.1" r="1.8"/>
			<circle class="st22" cx="478.2" cy="192.8" r="0.9"/>
		</g>
		<g>
			<circle class="st2" cx="320.1" cy="337.7" r="30.1"/>
			<g>
				<polygon class="st23" points="329.5,322.6 329.5,326.3 325.8,326.3 325.8,330 322.1,330 322.1,333.6 318.4,333.6 318.4,337.3 
					318.4,337.3 318.4,337.3 318.4,337.3 314.7,337.3 314.7,341 314.7,341 314.7,341 314.7,341 311.1,341 311.1,344.7 311.1,344.7 
					311.1,344.7 311.1,344.7 307.4,344.7 307.4,348.4 307.4,348.4 307.4,348.4 303.7,348.4 303.7,352.1 307.4,352.1 329,352.1 
					322.9,347.3 322.1,341.7 323.5,337.5 329.2,335.2 333.2,335.2 333.2,322.6 				"/>
				<path class="st24" d="M319.3,343.5c0-5.7,4.3-9.3,9.6-9.3c3.7,0,6.1,1.9,7.4,4l-3.1,1.7c-0.8-1.3-2.4-2.3-4.2-2.3
					c-3.3,0-5.6,2.5-5.6,5.9s2.4,5.9,5.6,5.9c1.6,0,3.1-0.7,3.8-1.4v-2.2H328v-3.3h8.6v6.9c-1.8,2-4.4,3.4-7.6,3.4
					C323.6,352.7,319.3,349.1,319.3,343.5z"/>
			</g>
		</g>
	</g>
</g>
</svg>
