<?xml version="1.0" encoding="utf-8"?>
<!-- Generator: Adobe Illustrator 24.0.0, SVG Export Plug-In . SVG Version: 6.00 Build 0)  -->
<svg version="1.1" xmlns="http://www.w3.org/2000/svg" xmlns:xlink="http://www.w3.org/1999/xlink" x="0px" y="0px"
	 viewBox="0 0 635 500" style="enable-background:new 0 0 635 500;" xml:space="preserve">
<style type="text/css">
	.st0{fill:#F7F7F7;}
	.st1{fill:#D1E8F2;}
	.st2{fill:#D6EDF9;}
	.st3{fill:#FFFFFF;}
	.st4{fill:#FFDB45;}
	.st5{fill:#FBAE17;}
	.st6{fill:#FF7469;}
	.st7{fill:#D1495B;}
	.st8{fill:#2E70BE;}
	.st9{fill:none;stroke:#FFDB45;stroke-width:7.677;stroke-miterlimit:10;}
	.st10{fill:#FF9087;}
	.st11{fill:none;stroke:#FF9087;stroke-width:7.677;stroke-miterlimit:10;}
	.st12{fill:#5AAF6F;}
	.st13{fill:none;stroke:#6ECCF6;stroke-width:7.677;stroke-miterlimit:10;}
</style>
<g id="Layer_1">
	<g id="Layer_1_1_">
	</g>
</g>
<g id="top_elements">
	<g>
		<rect class="st0" width="635" height="500"/>
		<path class="st1" d="M416.9,417.8H202.6c-7.6,0-13.8-6.2-13.8-13.8V114.2c0-7.6,6.2-13.8,13.8-13.8h214.3
			c7.6,0,13.8,6.2,13.8,13.8V404C430.7,411.6,424.5,417.8,416.9,417.8z"/>
		<path class="st2" d="M407.6,398.6H211.9c-3.9,0-7.1-3.2-7.1-7.1V126.7c0-3.9,3.2-7.1,7.1-7.1h195.7c3.9,0,7.1,3.2,7.1,7.1v264.8
			C414.7,395.4,411.5,398.6,407.6,398.6z"/>
		<g>
			<path class="st3" d="M380.4,190H244.9c-6.4,0-11.6-5.2-11.6-11.6v-34.4c0-6.4,5.2-11.6,11.6-11.6h135.4c6.4,0,11.6,5.2,11.6,11.6
				v34.4C392,184.8,386.7,190,380.4,190z"/>
			<path class="st0" d="M370.2,164.4h-110c-2.1,0-3.8-1.7-3.8-3.8l0,0c0-2.1,1.7-3.8,3.8-3.8h110c2.1,0,3.8,1.7,3.8,3.8l0,0
				C374.1,162.7,372.3,164.4,370.2,164.4z"/>
			<path class="st4" d="M343.4,164.4h-83.2c-2.1,0-3.8-1.7-3.8-3.8l0,0c0-2.1,1.7-3.8,3.8-3.8h83.2c2.1,0,3.8,1.7,3.8,3.8l0,0
				C347.2,162.7,345.5,164.4,343.4,164.4z"/>
			<circle class="st5" cx="347.2" cy="160.6" r="6.4"/>
		</g>
		<g>
			<path class="st3" d="M385.5,373.6H250c-6.4,0-11.6-5.2-11.6-11.6v-34.4c0-6.4,5.2-11.6,11.6-11.6h135.4c6.4,0,11.6,5.2,11.6,11.6
				V362C397.1,368.4,391.9,373.6,385.5,373.6z"/>
			<path class="st0" d="M375.3,348h-110c-2.1,0-3.8-1.7-3.8-3.8l0,0c0-2.1,1.7-3.8,3.8-3.8h110c2.1,0,3.8,1.7,3.8,3.8l0,0
				C379.2,346.3,377.5,348,375.3,348z"/>
			<path class="st6" d="M360,348h-94.7c-2.1,0-3.8-1.7-3.8-3.8l0,0c0-2.1,1.7-3.8,3.8-3.8H360c2.1,0,3.8,1.7,3.8,3.8l0,0
				C363.8,346.3,362.1,348,360,348z"/>
			<circle class="st7" cx="362.5" cy="344.8" r="6.4"/>
		</g>
		<g>
			<path class="st3" d="M490.3,294.9H267.6c-7.6,0-13.8-6.2-13.8-13.8v-63.2c0-7.6,6.2-13.8,13.8-13.8h222.7
				c7.6,0,13.8,6.2,13.8,13.8v63.2C504.1,288.7,497.9,294.9,490.3,294.9z"/>
			<path class="st0" d="M469.8,254.6H296.2c-3.3,0-6.1-2.7-6.1-6.1l0,0c0-3.3,2.7-6.1,6.1-6.1h173.6c3.3,0,6.1,2.7,6.1,6.1l0,0
				C475.9,251.8,473.1,254.6,469.8,254.6z"/>
			<path class="st2" d="M389,254.6h-92.9c-3.3,0-6.1-2.7-6.1-6.1v0c0-3.3,2.7-6.1,6.1-6.1H389c3.3,0,6.1,2.7,6.1,6.1v0
				C395.1,251.8,392.4,254.6,389,254.6z"/>
			<circle class="st8" cx="395.1" cy="248.5" r="10.1"/>
		</g>
		<path class="st8" d="M238.4,96.4v23.5c0,3.4,2.5,6.2,5.5,6.2h3c3,0,5.5-2.8,5.5-6.2V96.4c0-3.4-2.5-6.2-5.5-6.2h-3
			C240.9,90.2,238.4,93,238.4,96.4z"/>
		<path class="st8" d="M368.9,96.4v23.5c0,3.4,2.5,6.2,5.5,6.2h3c3,0,5.5-2.8,5.5-6.2V96.4c0-3.4-2.5-6.2-5.5-6.2h-3
			C371.4,90.2,368.9,93,368.9,96.4z"/>
		
			<ellipse transform="matrix(0.9593 -0.2825 0.2825 0.9593 -87.4701 32.3382)" class="st9" cx="68.4" cy="319.5" rx="10.9" ry="11.3"/>
		<ellipse class="st10" cx="566.6" cy="294.7" rx="10.9" ry="11.3"/>
		<ellipse class="st11" cx="122.2" cy="215.6" rx="11.1" ry="11.5"/>
		<ellipse class="st12" cx="515.4" cy="150.1" rx="10.9" ry="11.3"/>
		<ellipse class="st13" cx="488.6" cy="389.4" rx="10.9" ry="11.3"/>
	</g>
</g>
</svg>
