<?xml version="1.0" encoding="utf-8"?>
<!-- Generator: Adobe Illustrator 24.0.0, SVG Export Plug-In . SVG Version: 6.00 Build 0)  -->
<svg version="1.1" id="Layer_1" xmlns="http://www.w3.org/2000/svg" xmlns:xlink="http://www.w3.org/1999/xlink" x="0px" y="0px"
	 viewBox="0 0 635 500" style="enable-background:new 0 0 635 500;" xml:space="preserve">
<style type="text/css">
	.st0{fill:#F7F7F7;}
	.st1{fill:#F1F2F2;}
	.st2{fill:none;stroke:#BFD5E0;stroke-width:3.4708;stroke-linecap:round;stroke-linejoin:round;stroke-miterlimit:10;}
	.st3{fill:#FF9087;stroke:#FF9087;stroke-width:3.4708;stroke-linecap:round;stroke-linejoin:round;stroke-miterlimit:10;}
	.st4{fill:#FFDB45;stroke:#FFDB45;stroke-width:4.6278;stroke-linecap:round;stroke-linejoin:round;stroke-miterlimit:10;}
	.st5{fill:#CEE7F2;}
	.st6{fill:none;stroke:#182445;stroke-width:4.6278;stroke-linecap:round;stroke-miterlimit:10;}
	.st7{fill:#FFFFFF;}
	.st8{fill:#5AAF6F;stroke:#5AAF6F;stroke-width:4.6278;stroke-linecap:round;stroke-linejoin:round;stroke-miterlimit:10;}
	.st9{fill:#D1EEFC;}
	.st10{fill:#2E70BE;}
	.st11{fill:none;stroke:#2E70BE;stroke-width:4.6278;stroke-miterlimit:10;}
	.st12{fill:#C8E2ED;}
	.st13{fill:#D6EDF9;}
</style>
<g id="Layer_1_1_">
</g>
<g id="top_elements">
	<g>
		<rect class="st0" width="635" height="500"/>
		<path class="st1" d="M487.2,382.8H403c4.2,0,7.7-2.4,7.7-5.4s-3.4-5.4-7.7-5.4H250c-4.2,0-7.7,2.4-7.7,5.4s3.4,5.4,7.7,5.4h84.2
			c4.2,0,7.7,2.4,7.7,5.4s-3.4,5.4-7.7,5.4h-27.3c-4.2,0-7.7,2.4-7.7,5.4s3.4,5.4,7.7,5.4h153c4.2,0,7.7-2.4,7.7-5.4
			s-3.4-5.4-7.7-5.4h27.3c4.2,0,7.7-2.4,7.7-5.4S491.5,382.8,487.2,382.8z"/>
		<path class="st1" d="M278.3,394.3h61.3c-3.1,0-5.6-2.4-5.6-5.4s2.5-5.4,5.6-5.4h111.5c3.1,0,5.6,2.4,5.6,5.4s-2.5,5.4-5.6,5.4
			h-61.3c-3.1,0-5.6,2.4-5.6,5.4s2.5,5.4,5.6,5.4h19.9c3.1,0,5.6,2.4,5.6,5.4s-2.5,5.4-5.6,5.4H298.2c-3.1,0-5.6-2.4-5.6-5.4
			s2.5-5.4,5.6-5.4h-19.9c-3.1,0-5.6-2.4-5.6-5.4S275.2,394.3,278.3,394.3z"/>
		<path class="st1" d="M218.9,425.5h66c-3.3,0-6-2.4-6-5.4s2.7-5.4,6-5.4H405c3.3,0,6,2.4,6,5.4s-2.7,5.4-6,5.4h-66
			c-3.3,0-6,2.4-6,5.4s2.7,5.4,6,5.4h21.4c3.3,0,6,2.4,6,5.4s-2.7,5.4-6,5.4h-120c-3.3,0-6-2.4-6-5.4s2.7-5.4,6-5.4H219
			c-3.3,0-6-2.4-6-5.4S215.6,425.5,218.9,425.5z"/>
		<path class="st1" d="M492.4,431H389c5.2,0,9.4-3,9.4-6.6s-4.2-6.6-9.4-6.6H200.9c-5.2,0-9.4,3-9.4,6.6s4.2,6.6,9.4,6.6h103.5
			c5.2,0,9.4,3,9.4,6.6c0,3.7-4.2,6.6-9.4,6.6h-33.6c-5.2,0-9.4,3-9.4,6.6s4.2,6.6,9.4,6.6h188.1c5.2,0,9.4-3,9.4-6.6
			s-4.2-6.6-9.4-6.6h33.6c5.2,0,9.4-3,9.4-6.6C501.8,433.9,497.6,431,492.4,431z"/>
		<path class="st1" d="M442.5,455.9H327.6c5.8,0,10.4-3.3,10.4-7.4s-4.7-7.4-10.4-7.4h-209c-5.8,0-10.4,3.3-10.4,7.4
			s4.7,7.4,10.4,7.4h114.9c5.8,0,10.4,3.3,10.4,7.4s-4.7,7.4-10.4,7.4h-37.3c-5.8,0-10.4,3.3-10.4,7.4s4.7,7.4,10.4,7.4h208.9
			c5.8,0,10.4-3.3,10.4-7.4s-4.7-7.4-10.4-7.4h37.3c5.8,0,10.4-3.3,10.4-7.4C452.9,459.2,448.3,455.9,442.5,455.9z"/>
		<path class="st1" d="M440.6,359h-89.2c4.5,0,8.1-2.6,8.1-5.7s-3.6-5.7-8.1-5.7H189.2c-4.5,0-8.1,2.6-8.1,5.7s3.6,5.7,8.1,5.7h89.2
			c4.5,0,8.1,2.6,8.1,5.7c0,3.2-3.6,5.7-8.1,5.7h-29c-4.5,0-8.1,2.6-8.1,5.7s3.6,5.7,8.1,5.7h162.2c4.5,0,8.1-2.6,8.1-5.7
			s-3.6-5.7-8.1-5.7h29c4.5,0,8.1-2.6,8.1-5.7C448.7,361.6,445.1,359,440.6,359z"/>
		<g>
			<line class="st2" x1="181.3" y1="211.1" x2="181.3" y2="180.7"/>
			<path class="st3" d="M184.2,182.1c0,0,2.9-3.3,7,0s7.4,0.4,7.4,0.4v7.8c0,0-4.4,2.3-6.9-0.6c-2.4-2.8-7.5,0.2-7.5,0.2V182.1z"/>
		</g>
		<g>
			<line class="st2" x1="309.2" y1="125.9" x2="309.2" y2="162.3"/>
			<polygon class="st4" points="312.5,127.3 330.8,135.1 312.5,140.7 			"/>
		</g>
		<g id="graphics_8_">
			<polygon class="st5" points="45.8,337.4 181.5,201.7 317.3,337.4 81.7,337.4 			"/>
			<g>
				<path class="st6" d="M310.5,151.5"/>
				<path class="st6" d="M310.5,170.7"/>
			</g>
			<polygon class="st7" points="181.6,200.4 212.4,231.2 181.6,262 150.9,231.2 			"/>
		</g>
		<g>
			<line class="st2" x1="449.3" y1="208" x2="449.3" y2="177.6"/>
			<path class="st8" d="M452.1,179c0,0,2.9-3.3,7,0s7.4,0.4,7.4,0.4v7.8c0,0-4.4,2.3-6.9-0.6c-2.4-2.8-7.5,0.2-7.5,0.2V179z"/>
		</g>
		<g id="graphics_6_">
			<polygon class="st5" points="589.2,337.9 449.9,201.7 314.1,337.4 549.7,337.4 			"/>
			<g>
				<path class="st6" d="M320.9,151.5"/>
				<path class="st6" d="M320.9,170.7"/>
			</g>
			<polygon class="st7" points="449.8,200.4 419,231.2 449.8,262 480.5,231.2 			"/>
		</g>
		<g id="graphics_1_">
			<polygon class="st9" points="486.7,338.1 309.5,160.9 133,337.4 439.3,337.4 			"/>
			<g>
				<path class="st6" d="M141.7,95.7"/>
				<path class="st6" d="M141.7,120.6"/>
			</g>
			<polygon class="st7" points="309.4,159.3 269.4,199.3 309.4,239.3 349.4,199.3 			"/>
		</g>
		<g>
			<g id="Yeti_x5F_Body_8_">
				<path class="st7" d="M265.1,477.7c0.4-5.5,0.8-10.9,1.3-16.4c-0.6,1.9-2.3,3.4-4.2,3.7c3.2-18.6,4.4-37,5.6-55.7
					c0.2-2.8-0.4-6.9,0.6-9.5c0.3-1,0.6-5.4,1.2-16.7c0.1-1.2-3.6,1.9-3.5,0.7c0.1-1.2,3.5-5.3,3.7-6.5c0.1-1.6-6.2,2.4-4.8,0.6
					c0.7-0.9,5.5-7.6,5.7-8.7c0.1-0.7,0.2-1.5,0.3-2.2c2.3-15.4,8.1-28.4,8.7-28.9c-2.2-0.7-17.9-5.6-17.8-8
					c0.2-2.4,19.9-11.4,19.9-11.4s-16.3-12.1-14.4-15.1c0.9-1.4,15.5,0.1,33,2.7c1,0.1-9.8-14.8,5.2-1.9c1.7,1.4,2.5,3.1,3,3.2
					c18.4,1.8,34.4,2.6,45.6,11.7c10.1,8.1,15.1,17.5,17.5,25.7c1.2,4.1,1.7,8.8,1.9,13.6c0,0.6,4.5,3.6,4.6,5
					c0.1,0.6-4.6-1.8-4.6-1.2c0,0.4,2.9,2.9,2.9,3.3s-3-0.7-3-0.3c-0.1,7.4-0.5,13.4,0.1,16.1c0.9,4.1,3.1,7.7,4.4,11.6
					c3.4,9.5,1.1,22.4,1.1,32.4c0,11.9,0,23.7,0,35.6c-0.7-0.7-1.5-1.3-2.2-2c0.1,7.7-0.1,15.3-0.6,23c-0.5-0.6-1-1.3-1.5-1.9
					c-0.5,4.2,1,7.6,0.6,11.7c-0.1,0.9,0.5,2.1,0,2.8c-0.8,1,0.9,5.6,0.9,5.6s-21.5,0-29.4,0c-18.6,0-35.6,0-54.2,0
					c-7,0-20.6,0-27.6,0c-0.2,0,1.8-14.8,2.2-15.1c-1,1.2-2,2.3-3.1,3.5C264.5,484.8,264.8,481.2,265.1,477.7z"/>
			</g>
			<g id="Yeti_x5F_Arm_18_">
				<path class="st7" d="M353.8,395.5c3.5,0.7,5.1,2.3,7.6,3.4c3.7,1.6,7.3,0,10.5-0.4s9.6-3.3,14.7-5.9c1.1-0.6,4.2-2.7,7-4.9
					c0.7-0.5,1.9-5.7,2.2-2c0,0.3,0.2,0.1,0.5-0.1c0.2-0.2,0.4-0.3,0.5-0.5c0.3-0.3,0-5.5,1.4-1.4c0.3,0.8,0.5-0.4,0.8-1
					c0.4-1.1,2.5-11,3.4-4.5c0.7,5.2,7.2-9.6,8.4-11.9c1.5-3,0.8-2.6,5-2.1c4.7,0.5,19.3,0.7,23.4,11.2c0.6,1.5-2.9,10.4-3.3,11.4
					c-0.1,0.3-0.3,0.7-0.5,1.2s15.2-3.9-2,5.7c-2.1,1.2-4.1,2.7-2.5,2.7c0.3,0,3.7-0.3,3.4,0.5c-0.2,0.5-5.7,3.6-6,4.1
					c-0.6,0.9,3.6,0,2.9,0.9c-0.6,0.9-5.7,3.5-6.4,4.4c-2.7,3.5-6.2,7.2-11.3,12c-1.8,1.7-5.2,4-9.2,6.5c-1.1,0.7,3.7,2.1,1.9,2.6
					c-2,0.6-7.4,0.8-8.5,1.4c-12,7.1-23.6,16.3-29.5,18.5c-9.4,4.4-31.2,0.9-31.2,0.9s-6-18.8-5-29S348.1,394.2,353.8,395.5z"/>
				<path class="st10" d="M410.5,366.2c0,0-0.1-10.5,1.6-9.2c1.8,1.3,3.8,5.1,4.3,3.8c1.8-4,3-9.6,4.8-9c1.7,0.5,2,11.7,1.8,10.1
					c0,0,5.1-10.2,6.8-9.7c1.9,0.5,2,12,2,12s6.9-8.1,7.8-6.6c0.4,0.7-0.8,5.2-1.3,9.4c-0.2,1.5,7.1-3.3,5.9-0.2
					c-1.1,2.7-4.6,9.3-4.6,9.3L410.5,366.2z"/>
			</g>
			<g id="Yeti_x5F_Arm_17_">
				<path class="st7" d="M281.2,395.5c-3.5,0.7-5.1,2.3-7.6,3.4c-3.7,1.6-7.3,0-10.5-0.4s-9.6-3.3-14.7-5.9c-1.1-0.6-4.2-2.7-7-4.9
					c-0.7-0.5-1.9-5.7-2.2-2c0,0.3-0.2,0.1-0.5-0.1c-0.2-0.2-0.4-0.3-0.5-0.5c-0.3-0.3,0-5.5-1.4-1.4c-0.3,0.8-0.5-0.4-0.8-1
					c-0.4-1.1-2.5-11-3.4-4.5c-0.7,5.2-7.2-9.6-8.4-11.9c-1.5-3-0.8-2.6-5-2.1c-4.7,0.5-19.3,0.7-23.4,11.2
					c-0.6,1.5,2.9,10.4,3.3,11.4c0.1,0.3,0.3,0.7,0.5,1.2s-15.2-3.9,2,5.7c2.1,1.2,4.1,2.7,2.5,2.7c-0.3,0-3.7-0.3-3.4,0.5
					c0.2,0.5,5.7,3.6,6,4.1c0.6,0.9-3.6,0-2.9,0.9c0.6,0.9,5.7,3.5,6.4,4.4c2.7,3.5,6.2,7.2,11.3,12c1.8,1.7,5.2,4,9.2,6.5
					c1.1,0.7-3.7,2.1-1.9,2.6c2,0.6,7.4,0.8,8.5,1.4c12,7.1,23.6,16.3,29.5,18.5c9.4,4.4,31.2,0.9,31.2,0.9s6-18.8,5-29
					S286.9,394.2,281.2,395.5z"/>
				<path class="st10" d="M224.5,366.2c0,0,0.1-10.5-1.6-9.2c-1.8,1.3-3.8,5.1-4.3,3.8c-1.8-4-3-9.6-4.8-9c-1.7,0.5-2,11.7-1.8,10.1
					c0,0-5.1-10.2-6.8-9.7c-1.9,0.5-2,12-2,12s-6.9-8.1-7.8-6.6c-0.4,0.7,0.8,5.2,1.3,9.4c0.2,1.5-7.1-3.3-5.9-0.2
					c1.1,2.7,4.6,9.3,4.6,9.3L224.5,366.2z"/>
			</g>
		</g>
		<g>
			<circle class="st11" cx="322.6" cy="390.2" r="10.5"/>
			<path class="st12" d="M353.1,478.8h-62.2c-4.7,0-8.5-3.8-8.5-8.5v-27.7c0-4.7,3.8-8.5,8.5-8.5h62.2c4.7,0,8.5,3.8,8.5,8.5v27.7
				C361.5,475,357.7,478.8,353.1,478.8z"/>
			<path class="st13" d="M352.2,442.3h-60.4c-5.1,0-9.3-4.2-9.3-9.3v-33.4c0-5.1,4.2-9.3,9.3-9.3h60.4c5.1,0,9.3,4.2,9.3,9.3V433
				C361.5,438.1,357.3,442.3,352.2,442.3z"/>
			<rect x="344.2" y="390.3" class="st10" width="4.9" height="61.2"/>
			<rect x="297.3" y="390.3" class="st10" width="4.9" height="61.2"/>
			<rect x="297.3" y="447.8" class="st7" width="4.9" height="8.6"/>
			<rect x="344.2" y="447.8" class="st7" width="4.9" height="8.6"/>
		</g>
		<path class="st7" d="M629.2,258.8h-47.1c2.4,0,4.3-1.4,4.3-3c0-1.7-1.9-3-4.3-3h-85.7c-2.4,0-4.3,1.4-4.3,3c0,1.7,1.9,3,4.3,3
			h47.1c2.4,0,4.3,1.4,4.3,3s-1.9,3-4.3,3h-15.3c-2.4,0-4.3,1.4-4.3,3c0,1.7,1.9,3,4.3,3h85.7c2.4,0,4.3-1.4,4.3-3
			c0-1.7-1.9-3-4.3-3h15.3c2.4,0,4.3-1.4,4.3-3S631.6,258.8,629.2,258.8z"/>
		<path class="st7" d="M552.5,101.5h-47.1c2.4,0,4.3-1.4,4.3-3c0-1.7-1.9-3-4.3-3h-85.7c-2.4,0-4.3,1.4-4.3,3c0,1.7,1.9,3,4.3,3
			h47.1c2.4,0,4.3,1.4,4.3,3s-1.9,3-4.3,3h-15.3c-2.4,0-4.3,1.4-4.3,3c0,1.7,1.9,3,4.3,3h85.7c2.4,0,4.3-1.4,4.3-3
			c0-1.7-1.9-3-4.3-3h15.3c2.4,0,4.3-1.4,4.3-3S554.9,101.5,552.5,101.5z"/>
		<path class="st7" d="M177.2,166.9H125c2.6,0,4.7-1.5,4.7-3.3s-2.1-3.3-4.7-3.3H30.2c-2.6,0-4.7,1.5-4.7,3.3s2.1,3.3,4.7,3.3h52.2
			c2.6,0,4.7,1.5,4.7,3.3s-2.1,3.3-4.7,3.3H65.5c-2.6,0-4.7,1.5-4.7,3.3s2.1,3.3,4.7,3.3h94.8c2.6,0,4.7-1.5,4.7-3.3
			s-2.1-3.3-4.7-3.3h16.9c2.6,0,4.7-1.5,4.7-3.3S179.9,166.9,177.2,166.9z"/>
	</g>
</g>
</svg>
