<?xml version="1.0" encoding="utf-8"?>
<!-- Generator: Adobe Illustrator 24.0.0, SVG Export Plug-In . SVG Version: 6.00 Build 0)  -->
<svg version="1.1" id="Layer_1" xmlns="http://www.w3.org/2000/svg" xmlns:xlink="http://www.w3.org/1999/xlink" x="0px" y="0px"
	 viewBox="0 0 635 500" style="enable-background:new 0 0 635 500;" xml:space="preserve">
<style type="text/css">
	.st0{fill:#F7F7F7;}
	.st1{fill:none;stroke:#FFDB45;stroke-width:7.3583;stroke-miterlimit:10.0006;}
	.st2{fill:none;stroke:#FF9087;stroke-width:7.3583;stroke-miterlimit:10.0006;}
	.st3{fill:#5AAF6F;}
	.st4{fill:none;stroke:#30AABC;stroke-width:6.132;stroke-miterlimit:10.0006;}
	.st5{fill:#D6EDF9;}
	.st6{fill:#D1E8F2;}
	.st7{fill:#FFFFFF;}
	.st8{fill:#2E70BE;}
	.st9{fill:#FF9087;}
	
		.st10{opacity:0.5;fill:none;stroke:#FFFFFF;stroke-width:6.1316;stroke-linecap:round;stroke-linejoin:round;stroke-miterlimit:10;enable-background:new    ;}
</style>
<g id="Layer_1_1_">
</g>
<g id="top_elements">
	<g>
		<rect class="st0" width="635" height="500"/>
		<ellipse transform="matrix(0.9593 -0.2825 0.2825 0.9593 -82.843 175.4483)" class="st1" cx="567" cy="375" rx="10.4" ry="10.8"/>
		
			<ellipse transform="matrix(0.9593 -0.2825 0.2825 0.9593 -32.6579 38.0996)" class="st2" cx="115.8" cy="132.3" rx="10.6" ry="11"/>
		
			<ellipse transform="matrix(0.9593 -0.2825 0.2825 0.9593 -67.4591 29.3334)" class="st3" cx="68" cy="248.6" rx="10.4" ry="10.8"/>
		
			<ellipse transform="matrix(0.9593 -0.2825 0.2825 0.9593 -87.8738 42.9461)" class="st4" cx="105" cy="326.2" rx="10.4" ry="10.8"/>
		<g>
			<path class="st5" d="M515.2,175.3H169.7v178.6c0,6.8,5.5,12.3,12.3,12.3h321c6.8,0,12.3-5.5,12.3-12.3L515.2,175.3L515.2,175.3z"
				/>
			<path class="st6" d="M515.2,175.3H169.7v-14.5c0-6.8,5.5-12.3,12.3-12.3h321c6.8,0,12.3,5.5,12.3,12.3L515.2,175.3L515.2,175.3z"
				/>
			<ellipse class="st7" cx="196.7" cy="162.9" rx="5.9" ry="5.5"/>
			<ellipse class="st7" cx="216.6" cy="162.9" rx="5.9" ry="5.5"/>
			<ellipse class="st7" cx="236.5" cy="162.9" rx="5.9" ry="5.5"/>
			<g>
				<rect x="195.2" y="195.9" class="st7" width="155" height="10.9"/>
				<rect x="195.2" y="222.1" class="st7" width="155" height="10.9"/>
				<rect x="195.2" y="248.3" class="st7" width="155" height="10.9"/>
				<rect x="195.2" y="195.9" class="st8" width="67.6" height="10.9"/>
				<rect x="195.2" y="222.1" class="st8" width="122.1" height="10.9"/>
				<rect x="195.2" y="248.3" class="st8" width="101.1" height="10.9"/>
			</g>
		</g>
		<path class="st7" d="M326,341.2c2.9-1.3,6.1-2.2,9.3-2.4c7.8-0.5,15.1-6,20-12.7c5.7-7.7,9.2-17,13.9-25.4c0.9-1.5,1.8-3.1,3.4-4
			c2.4-1.3,5.3-0.2,7.4,1.4c8.7,6.6,12.4,22.7,23.9,20c5.3-1.2,9.3-6,10.4-11.7c2.9-16.4,8.5-29.4,16.4-43.2
			c3.8-6.7,13.1-7.2,17.1-0.6c0.4,0.6,0.7,1.2,1,1.9c3,7.3,3.1,15.6,5.4,23.2c0.6,2,2,3.8,3.8,4.6c4.3,2,7.6-2,9.6-5.6
			c5.8-10.3,12-22.1,17.1-32.7c1.5-3.2,6-2,6,1.6v87.3H326.4C325.5,342.9,325.2,341.6,326,341.2L326,341.2z"/>
		<path class="st7" d="M268.8,399.3h-166c-8.1,0-14.7-6.6-14.7-14.7v-83.4c0-8.1,6.6-14.7,14.7-14.7h166c8.1,0,14.7,6.6,14.7,14.7
			v83.4C283.5,392.7,276.9,399.3,268.8,399.3z"/>
		<path class="st7" d="M562,232.5h-94.8c-8.1,0-14.7-6.6-14.7-14.7v-94.4c0-8.1,6.6-14.7,14.7-14.7H562c8.1,0,14.7,6.6,14.7,14.7
			v94.4C576.7,225.9,570.1,232.5,562,232.5z"/>
		<path class="st9" d="M116.2,373.6h-0.6c-3,0-5.5-2.5-5.5-5.5v-2.5c0-3,2.5-5.5,5.5-5.5h0.6c3,0,5.5,2.5,5.5,5.5v2.5
			C121.7,371.1,119.2,373.6,116.2,373.6z"/>
		<path class="st9" d="M144.1,373.6h-0.6c-3,0-5.5-2.5-5.5-5.5v-18.4c0-3,2.5-5.5,5.5-5.5h0.6c3,0,5.5,2.5,5.5,5.5V368
			C149.6,371.1,147.2,373.6,144.1,373.6z"/>
		<path class="st9" d="M172.1,373.6h-0.6c-3,0-5.5-2.5-5.5-5.5v-51.5c0-3,2.5-5.5,5.5-5.5h0.6c3,0,5.5,2.5,5.5,5.5V368
			C177.6,371.1,175.1,373.6,172.1,373.6z"/>
		<path class="st9" d="M200,373.6h-0.6c-3,0-5.5-2.5-5.5-5.5v-36.8c0-3,2.5-5.5,5.5-5.5h0.6c3,0,5.5,2.5,5.5,5.5V368
			C205.6,371.1,203.1,373.6,200,373.6z"/>
		<path class="st9" d="M228,373.6h-0.6c-3,0-5.5-2.5-5.5-5.5v-23.3c0-3,2.5-5.5,5.5-5.5h0.6c3,0,5.5,2.5,5.5,5.5V368
			C233.5,371.1,231.1,373.6,228,373.6z"/>
		<path class="st9" d="M256,373.6h-0.6c-3,0-5.5-2.5-5.5-5.5v-51.5c0-3,2.5-5.5,5.5-5.5h0.6c3,0,5.5,2.5,5.5,5.5V368
			C261.5,371.1,259,373.6,256,373.6z"/>
		<ellipse class="st3" cx="514.6" cy="169.9" rx="42.7" ry="40.4"/>
		<polyline class="st10" points="557.9,170 515.2,170 515.2,210.9 		"/>
	</g>
</g>
</svg>
