<?xml version="1.0" encoding="utf-8"?>
<!-- Generator: Adobe Illustrator 24.0.0, SVG Export Plug-In . SVG Version: 6.00 Build 0)  -->
<svg version="1.1" xmlns="http://www.w3.org/2000/svg" xmlns:xlink="http://www.w3.org/1999/xlink" x="0px" y="0px"
	 viewBox="0 0 635 500" style="enable-background:new 0 0 635 500;" xml:space="preserve">
<style type="text/css">
	.st0{fill:#F7F7F7;}
	.st1{fill:#C6EAFB;}
	.st2{fill:#FFFFFF;}
	.st3{fill:#F1F2F2;}
	.st4{fill:#DEE3E5;}
	.st5{fill:none;stroke:#F1F2F2;stroke-width:3.7636;stroke-linecap:round;stroke-linejoin:round;stroke-miterlimit:10;}
	.st6{fill:#2E70BE;stroke:#FBFBFB;stroke-width:1.2545;stroke-miterlimit:10;}
	.st7{fill:#0E0E51;}
	.st8{fill:#DD5463;}
	.st9{fill:#F0BDCF;stroke:#F2BFD1;stroke-width:0.6273;stroke-miterlimit:10;}
	.st10{fill:none;stroke:#F1F1F1;stroke-width:1.38;stroke-miterlimit:10;}
	.st11{fill:#1B2342;stroke:#F1F1F1;stroke-width:1.38;stroke-miterlimit:10;}
	.st12{fill:none;stroke:#DEE3E5;stroke-width:18.8179;stroke-miterlimit:10;}
	.st13{fill:#2E70BE;}
	.st14{fill:#1DB35F;}
	.st15{fill:none;stroke:#FFFFFF;stroke-width:2.509;stroke-linecap:round;stroke-linejoin:round;stroke-miterlimit:10;}
	.st16{fill:#6ECCF6;}

	.speech_bubble {animation: speech_bubble 5s linear infinite;}

	@keyframes speech_bubble {
    25% { transform: translateY(10px);}
		75% { transform: translateY(-10px);}
	}
</style>
<g id="Layer_1">
</g>
<g id="top_elements">
	<g>
		<rect class="st0" width="635" height="500"/>
		<rect x="100.6" y="114.7" class="st1" width="120" height="273.5"/>
		<rect x="242" y="114.7" class="st2" width="120" height="121.1"/>
		<rect x="381.1" y="114.7" class="st2" width="148.6" height="121.1"/>
		<rect x="242" y="259.8" class="st3" width="287.6" height="121.1"/>
		<circle class="st4" cx="419.3" cy="320.4" r="41.4"/>
		<polyline class="st5" points="419.3,279 419.3,320.4 460.7,320.4 		"/>
		<g id="Yeti_x5F_Body_3_">
			<path class="st2" d="M389.6,379.4c-0.2,0.8-0.4,1.6-0.6,2.4c-0.3,1.3-6.4,8.3-7.3,9.2c-1.8,1.9,5.8-1.9,5.5-0.2
				c-0.2,1.4-4.6,5.6-4.8,6.9c-0.2,1.3,4.2-1.7,4.1-0.5c-1.8,12.6-2.6,17.6-3.1,18.6l-0.5,4.8c9.7,2.2,14-0.3,23.8,1.3
				c11.2,1.8,28.9-2,40.1-1.3c19.1,1.3,34.8-1.3,53.9,0l6.3,2.5l0,0.9c-2.6-7.4-2.6-15.4-2.9-18.1c-0.4-3,0.7-9.7,1.6-18
				c0.1-0.5,3.3,1.1,3.4,0.6c0-0.5-2.9-3.5-2.9-4c0.1-0.7,5.1,2.5,5.1,1.8c-0.1-1.5-4.8-5.4-4.7-6.1c0.3-5.3,0.2-10.7-0.7-15.4
				c-1.9-9.5-6.6-20.5-17.1-30.7C477,323,459,320.5,438.4,316.5c-0.5-0.1-1.3-2.1-3.1-3.8c-15.6-16-5,1.9-6.1,1.6
				c-19.6-4.7-35.9-7.9-37.1-6.4c-2.5,3.1,14.7,18.4,14.7,18.4s-23.3,8.1-23.7,10.7c-0.4,2.7,16.8,9.9,19.2,10.8
				C401.7,348.3,393.8,362.3,389.6,379.4z"/>
			<path class="st6" d="M411.7,366.9c-4,5.3-7,30.6-3,38s7.1,13.3,37.5,13.9c30.5,0.5,31.1-2.1,37.2-8.5c6-6.3,2.4-43.8-1.4-46.8
				s-20.8,10.2-23.6,9.8c-2.8-0.5,2-4.3,0.3-7.9c-1.7-3.6-29.3,7.8-29.5,4.5c-0.2-3,5.6-6.6,5.8-9.3
				C435.6,355.7,415.4,362,411.7,366.9z"/>
			<circle class="st7" cx="430.4" cy="383.5" r="4.4"/>
			<circle class="st7" cx="462.4" cy="385.1" r="4.4"/>
			<path class="st7" d="M427.2,396.6c-0.2,0.2,6.4,9.3,22.3,8.6c10.6-0.4,18.4-7.8,18.2-8.5S427.5,396.4,427.2,396.6z"/>
			<g>

					<ellipse transform="matrix(0.9985 -5.424728e-02 5.424728e-02 0.9985 -20.5983 26.2573)" class="st8" cx="473.4" cy="392.6" rx="4.3" ry="2.1"/>
				<line class="st9" x1="472.5" y1="391.5" x2="471.3" y2="393"/>
				<line class="st9" x1="474" y1="391.6" x2="472.8" y2="393"/>
				<line class="st9" x1="475.3" y1="391.5" x2="474.1" y2="393"/>
			</g>
			<g>

					<ellipse transform="matrix(0.9985 -5.424728e-02 5.424728e-02 0.9985 -20.6506 23.4098)" class="st8" cx="420.9" cy="392.1" rx="4.3" ry="2.1"/>
				<line class="st9" x1="420" y1="391.1" x2="418.9" y2="392.5"/>
				<line class="st9" x1="421.5" y1="391.1" x2="420.3" y2="392.6"/>
				<line class="st9" x1="422.8" y1="391" x2="421.6" y2="392.5"/>
			</g>
			<polygon class="st10" points="436.2,397.2 437.1,400.6 437.8,397.1 			"/>
			<polygon class="st11" points="456.4,397.2 457.3,400.6 458,397.1 			"/>
		</g>
		<path class="st12" d="M544.6,411.4H89.4c-10.4,0-18.9-8.5-18.9-18.9V102.7c0-10.4,8.5-18.9,18.9-18.9h455.2
			c10.4,0,18.9,8.5,18.9,18.9v289.8C563.5,403,555.1,411.4,544.6,411.4z"/>
		<path class="st13" d="M398.2,404.6c0,0.1,0,0.3,0,0.4c0.1,0.7,0.4,1.5,0.5,2.2c0.1,0.3,0.8,3.9-0.1,3.6c-1.4-0.5-3.3-2.6-3.5-1.7
			c-0.5,2.9-0.3,6.6-1.5,6.6c-1.2,0-3.3-7.1-2.9-6.2c0,0-1.5,7.4-2.7,7.4c-1.3,0-3.4-7.4-3.4-7.4s-3,6.4-3.9,5.6
			c-0.4-0.4-0.4-3.5-0.7-6.2c-0.1-1-4,3.3-3.8,1.2c0.3-3.1,1.1-6.3,2.4-9c0.3-0.7,0.7-1.4,1.2-1.8c0.7-0.6,1.6-0.7,2.5-0.9
			c4.3-0.6,8.8-0.2,12.7,1.7c0.9,0.4,1.8,1,2.4,1.8C398.3,402.8,398.2,403.6,398.2,404.6z"/>
		<path class="st13" d="M513.5,404.6c0.3,0.9,0.5,1.9,0.7,2.9c0.1,0.3,0.8,3.7-0.1,3.3c-1.4-0.5-3.3-2.6-3.5-1.7
			c-0.5,2.9-0.3,6.6-1.5,6.6c-1.2,0-3.3-7.1-2.9-6.2c0,0-1.5,7.4-2.7,7.4c-1.3,0-3.4-7.4-3.4-7.4s-3,6.4-3.9,5.6
			c-0.4-0.4-0.4-3.5-0.7-6.2c-0.1-1-4,3.3-3.8,1.2c0.2-1.8,0.7-3.6,1.1-5.3c0.4-1.8,0.2-4.1,1.5-5.5c0.8-0.8,1.9-1.1,3.1-1.3
			c2.7-0.4,5.5-0.4,8.1,0.2c2.6,0.7,5.1,2.1,6.9,4.1C512.9,403.1,513.2,403.8,513.5,404.6z"/>
		<rect x="116.9" y="128.5" class="st14" width="51.4" height="6.3"/>
		<rect x="116.9" y="147.3" class="st2" width="87.8" height="6.3"/>
		<rect x="116.9" y="162.3" class="st2" width="87.8" height="6.3"/>
		<rect x="116.9" y="177.4" class="st2" width="87.8" height="6.3"/>
		<rect x="300.1" y="128.5" class="st14" width="51.4" height="6.3"/>
		<rect x="430.5" y="128.5" class="st14" width="51.4" height="6.3"/>
		<rect x="257.4" y="147.3" class="st4" width="27.6" height="6.3"/>
		<rect x="257.4" y="162.3" class="st3" width="94.1" height="6.3"/>
		<rect x="257.4" y="177.4" class="st3" width="94.1" height="6.3"/>
		<rect x="257.4" y="192.4" class="st4" width="27.6" height="6.3"/>
		<rect x="257.4" y="207.5" class="st3" width="94.1" height="6.3"/>
		<rect x="116.9" y="220" class="st14" width="51.4" height="6.3"/>
		<rect x="116.9" y="238.9" class="st2" width="87.8" height="6.3"/>
		<rect x="116.9" y="253.9" class="st2" width="87.8" height="6.3"/>
		<rect x="116.9" y="269" class="st2" width="87.8" height="6.3"/>
		<rect x="116.9" y="306.6" class="st14" width="51.4" height="6.3"/>
		<rect x="116.9" y="325.4" class="st2" width="87.8" height="6.3"/>
		<rect x="116.9" y="340.5" class="st2" width="87.8" height="6.3"/>
		<rect x="116.9" y="355.5" class="st2" width="87.8" height="6.3"/>
		<path class="st3" d="M492,216.3h-70.3c-1.4,0-2.5-1.1-2.5-2.5v-64c0-1.4,1.1-2.5,2.5-2.5H492c1.4,0,2.5,1.1,2.5,2.5v64
			C494.5,215.1,493.4,216.3,492,216.3z"/>
		<circle class="st1" cx="510.8" cy="184.3" r="8.8"/>
		<circle class="st1" cx="401.7" cy="184.3" r="8.8"/>
		<polyline class="st15" points="402.6,180.5 398.9,184.3 402.6,188 		"/>
		<polyline class="st15" points="509.3,180.5 513,184.3 509.3,188 		"/>
		<circle class="st4" cx="312.6" cy="320.4" r="41.4"/>
		<polyline class="st5" points="354,320.4 312.6,320.4 312.6,361.8 		"/>
		<g class="speech_bubble">
			<path class="st2" d="M580.5,309.5c-7.5,8.5-17.4,12.6-28.6,13.7c-11.1,1.1-22,4.9-33.4,5.6c4.5-8.2,5.6-12.8,0.4-19.8
				c-4.1-5.5-7.3-10.8-8.9-17.6c-2.9-12.7,0.5-26.2,9-35.9c14.8-16.9,40.6-18.4,57.5-3.5C593.5,266.9,595.3,292.6,580.5,309.5z"/>
			<g>
				<polygon class="st16" points="561.2,261 561.2,266 556.2,266 556.2,271 551.2,271 551.2,276.1 546.2,276.1 546.2,281.1
					546.2,281.1 546.2,281.1 546.2,281.1 541.2,281.1 541.2,286.1 541.2,286.1 541.2,286.1 541.2,286.1 536.2,286.1 536.2,291.1
					536.2,291.1 536.2,291.1 536.2,291.1 531.2,291.1 531.2,296.1 531.2,296.1 531.2,296.1 526.2,296.1 526.2,301.1 531.2,301.1
					560.5,301.1 552.2,294.5 551.2,286.9 553,281.3 560.8,278.2 566.2,278.2 566.2,261 				"/>
				<path class="st13" d="M547.4,289.4c0-7.7,5.8-12.6,13-12.6c5,0,8.2,2.6,10,5.4l-4.3,2.3c-1.1-1.7-3.2-3.2-5.8-3.2
					c-4.5,0-7.7,3.4-7.7,8c0,4.6,3.2,8,7.7,8c2.2,0,4.2-0.9,5.1-1.9v-2.9h-6.4v-4.5h11.6v9.3c-2.5,2.8-5.9,4.6-10.3,4.6
					C553.3,302,547.4,297,547.4,289.4z"/>
			</g>
		</g>
	</g>
</g>
</svg>
