<?xml version="1.0" encoding="utf-8"?>
<!-- Generator: Adobe Illustrator 24.0.0, SVG Export Plug-In . SVG Version: 6.00 Build 0)  -->
<svg version="1.1" id="Layer_1" xmlns="http://www.w3.org/2000/svg" xmlns:xlink="http://www.w3.org/1999/xlink" x="0px" y="0px"
	 viewBox="0 0 635 500" style="enable-background:new 0 0 635 500;" xml:space="preserve">
<style type="text/css">
	.st0{fill:#F7F7F7;}
	.st1{fill:#D6EDF9;}
	.st2{fill:none;stroke:#D6EDF9;stroke-width:7.4442;stroke-miterlimit:10;}
	.st3{fill:#FFFFFF;}
	.st4{fill:#2E70BE;}
	.st5{fill:#FF9087;}
	.st6{fill:none;stroke:#FFDB45;stroke-width:7.4442;stroke-miterlimit:10;}
	.st7{fill:none;stroke:#FF9087;stroke-width:7.4442;stroke-miterlimit:10;}
	.st8{fill:#5AAF6F;}
	.st9{fill:none;stroke:#6EC1E8;stroke-width:7.4442;stroke-miterlimit:10;}
</style>
<g id="Layer_1_1_">
</g>
<g id="top_elements">
	<g>
		<rect class="st0" width="635" height="500"/>
		<path class="st1" d="M435.1,316c-44.1,72.9-138.9,96.3-211.8,52.2S127,229.4,171.1,156.5L435.1,316z"/>
		<path class="st2" d="M322.5,210.3c21.3-35.2,67.1-46.5,102.3-25.2s46.5,67.1,25.2,102.3L322.5,210.3z"/>
		<g id="Yeti_x5F_Arm_2_">
			<path class="st3" d="M200.9,490.1c9.9-9.9,23.2-19.9,29.1-27.6c5.5-7.2,11.4-13.8,16.5-21.4c1.3-2,4.4-8.3,7-14.7
				c0.6-1.5-2.2-11.2,1.7-5.4c0.3,0.5,0.4-0.1,0.6-0.7c0.2-0.4,0.3-0.9,0.4-1.3c0.3-0.8-5.1-9.1,1.1-3.7c1.3,1.1,0.5-1.2,0.4-2.4
				c-0.2-2.2-6.1-20.5,1.5-10.6c6,7.9,3-22.6,2.8-27.6c-0.3-6.4-1.2-5,6.4-8.3c8.3-3.6,32.8-17.1,49.5-3.7c2.3,1.9,4.9,20,5.2,22
				c0.1,0.6,0.2,1.4,0.3,2.6c0.1,1.1,21.7-20.9,2,11.3c-2.4,3.9-4.3,8.4-1.7,6.8c0.4-0.3,5.8-4,6.1-2.4c0.2,1.1-6.1,11.3-6.1,12.4
				c0,2.1,5.9-3.4,5.7-1.3c-0.2,2.1-6.2,11.1-6.5,13.3c-1.2,8.3-3.5,17.7-7.5,30.5c-1.4,4.6-4.8,11.5-9.2,19.5
				c-1.2,2.2,8.1-0.1,5.6,2.4c-2.8,2.8-11.6,8.3-12.7,10.3c-0.1,0.1-5,10.1-5,10.1c-33.5,0-57.1,0-57.1,0c-14.9,0,0,0-28.5,0
				c-6.3,0-17.4,0-17.4,0c4.5-14.7,0-2.5,8.7-16.1C201.1,484.4,199.9,491.1,200.9,490.1z"/>
			<path class="st4" d="M261.3,375.1c0,0-10.1-17.3-6-16.8c4.2,0.5,11,4.8,10.8,2.3c-0.7-8.4-4-18.6-0.6-19.4s14.3,17.4,12.5,15
				c0,0-1.1-21.6,2.1-22.5c3.6-0.9,14.6,18,14.6,18s3.8-19.9,6.8-18.3c1.4,0.8,3.6,9.3,6.5,16.7c1.1,2.7,8.7-12.1,9.6-5.9
				c0.8,5.5,1,19.7,1,19.7L261.3,375.1z"/>
		</g>
		<g id="Yeti_x5F_Arm_1_">
			<path class="st3" d="M480,40.9c-9.9,9.9-23.2,19.9-29.1,27.6c-5.5,7.2-11.4,13.8-16.5,21.4c-1.3,2-4.4,8.3-7,14.7
				c-0.6,1.5,2.2,11.2-1.7,5.4c-0.3-0.5-0.4,0.1-0.6,0.7c-0.2,0.4-0.3,0.9-0.4,1.3c-0.3,0.8,5.1,9.1-1.1,3.7
				c-1.3-1.1-0.5,1.2-0.4,2.4c0.2,2.2,6.1,20.5-1.5,10.6c-6-7.9-3,22.6-2.8,27.6c0.3,6.4,1.2,5-6.4,8.3c-8.3,3.6-32.8,17.1-49.5,3.7
				c-2.3-1.9-4.9-20-5.2-22c-0.1-0.6-0.2-1.4-0.3-2.6c-0.1-1.1-21.7,20.9-2-11.3c2.4-3.9,4.3-8.4,1.7-6.8c-0.4,0.3-5.8,4-6.1,2.4
				c-0.2-1.1,6.1-11.3,6.1-12.4c0-2.1-5.9,3.4-5.7,1.3c0.2-2.1,6.2-11.1,6.5-13.3c1.2-8.3,3.5-17.7,7.5-30.5
				c1.4-4.6,4.8-11.5,9.2-19.5c1.2-2.2-8.1,0.1-5.6-2.4c2.8-2.8,11.6-8.4,12.7-10.3C395.2,18,395.5,9.3,403.1,0
				c33.5,0,58.3,0,58.3,0c14.9,0,0,0,28.5,0c6.3,0,13.6,0,13.6,0c-4.5,14.7-13.6,33.5-22.3,47.1C479.9,46.6,481,40,480,40.9z"/>
			<path class="st4" d="M419.6,155.9c0,0,10.1,17.3,6,16.8c-4.2-0.5-11-4.8-10.8-2.3c0.7,8.4,4,18.6,0.6,19.4
				c-3.4,0.8-14.3-17.4-12.5-15c0,0,1.1,21.6-2.1,22.5c-3.6,0.9-14.6-18-14.6-18s-3.8,19.9-6.8,18.3c-1.4-0.8-3.6-9.3-6.5-16.7
				c-1.1-2.7-8.7,12.1-9.6,5.9c-0.8-5.5-1-19.7-1-19.7L419.6,155.9z"/>
		</g>
		<ellipse class="st5" cx="572.5" cy="389.3" rx="10.5" ry="10.9"/>
		<ellipse class="st6" cx="243.7" cy="70.5" rx="10.5" ry="10.9"/>
		<ellipse class="st7" cx="91.9" cy="340" rx="10.8" ry="11.2"/>
		<ellipse class="st8" cx="436" cy="421.6" rx="10.5" ry="10.9"/>
		<ellipse class="st8" cx="62.5" cy="167.3" rx="10.5" ry="10.9"/>
		<ellipse class="st9" cx="537.7" cy="230.5" rx="10.5" ry="10.9"/>
	</g>
</g>
</svg>
