<?xml version="1.0" encoding="utf-8"?>
<!-- Generator: Adobe Illustrator 24.0.0, SVG Export Plug-In . SVG Version: 6.00 Build 0)  -->
<svg version="1.1" xmlns="http://www.w3.org/2000/svg" xmlns:xlink="http://www.w3.org/1999/xlink" x="0px" y="0px"
	 viewBox="0 0 635 500" style="enable-background:new 0 0 635 500;" xml:space="preserve">
<style type="text/css">
	.st0{fill:#F7F7F7;}
	.st1{fill:#FFFFFF;}
	.st2{fill:#F1F2F2;}
	.st3{fill:#DEE3E5;}
	.st4{fill:#2E70BE;stroke:#FBFBFB;stroke-width:1.2553;stroke-miterlimit:10;}
	.st5{fill:#1D2348;}
	.st6{fill:#DD5463;}
	.st7{fill:#F0BDCF;stroke:#F2BFD1;stroke-width:0.6276;stroke-miterlimit:10;}
	.st8{fill:none;stroke:#F1F1F1;stroke-width:1.3808;stroke-miterlimit:10;}
	.st9{fill:#1B2342;stroke:#F1F1F1;stroke-width:1.3808;stroke-miterlimit:10;}
	.st10{fill:none;stroke:#DEE3E5;stroke-width:18.8292;stroke-miterlimit:10;}
	.st11{fill:#2E70BE;}
	.st12{fill:#1DB35F;}
	.st13{fill:#C6EAFB;}
	.st14{fill:none;stroke:#FFFFFF;stroke-width:2.5106;stroke-linecap:round;stroke-linejoin:round;stroke-miterlimit:10;}
	.st15{fill:#6ECCF6;}

	.speech_bubble {animation: speech_bubble 5s linear infinite;}

	@keyframes speech_bubble {
    25% { transform: translateY(10px);}
		75% { transform: translateY(-10px);}
	}
</style>
<g id="Layer_1">
</g>
<g id="top_elements">
	<g>
		<rect class="st0" width="635" height="500"/>
		<rect x="100.6" y="116.3" class="st1" width="120.1" height="263.6"/>
		<rect x="386.8" y="258.1" class="st2" width="142.4" height="121.2"/>
		<rect x="405.1" y="290.8" class="st3" width="32.7" height="6.3"/>
		<rect x="405.1" y="305.8" class="st3" width="111.6" height="6.3"/>
		<rect x="405.1" y="320.9" class="st3" width="111.6" height="6.3"/>
		<rect x="405.1" y="336" class="st1" width="32.7" height="6.3"/>
		<rect x="405.1" y="351" class="st3" width="111.6" height="6.3"/>
		<rect x="242.1" y="258.1" class="st2" width="129.6" height="121.2"/>
		<rect x="242.5" y="116.3" class="st1" width="287.5" height="121.2"/>
		<g id="Yeti_x5F_Body_9_">
			<path class="st1" d="M389.8,381.2c-0.2,0.8-0.4,1.6-0.6,2.4c-0.3,1.3-6.4,8.3-7.3,9.2c-1.8,1.9,5.8-1.9,5.5-0.2
				c-0.2,1.4-4.6,5.6-4.8,6.9c-0.2,1.3,4.3-1.7,4.1-0.5c-1.8,12.6-2.6,17.6-3.1,18.6l-0.5-0.2c9.7,2.2,14,0.9,23.9,2.5
				c11.2,1.8,28.9-3.3,40.2-2.5c19.1,1.3,34.9,3.7,54,5l8.8-2.5l0,0c-2.6-7.4-5.1-9.5-5.5-12.2c-0.4-3,0.7-9.8,1.6-18
				c0.1-0.5,3.3,1.1,3.4,0.6c0-0.5-3-3.5-2.9-4c0.1-0.7,5.1,2.5,5.1,1.8c-0.1-1.5-4.8-5.4-4.7-6.1c0.3-5.3,0.2-10.7-0.7-15.4
				c-1.9-9.5-6.6-20.5-17.1-30.7c-11.7-11.3-29.7-13.8-50.3-17.8c-0.5-0.1-1.3-2.1-3.1-3.9c-15.6-16-5,1.9-6.1,1.6
				c-19.6-4.7-35.9-7.9-37.1-6.4c-2.5,3.1,14.7,18.5,14.7,18.5s-23.3,8.1-23.7,10.8c-0.4,2.7,16.9,9.9,19.3,10.9
				C401.9,350.1,394,364.1,389.8,381.2z"/>
			<path class="st4" d="M412,368.6c-4,5.3-7.1,30.6-3,38c4,7.4,7.1,13.3,37.6,13.9c30.5,0.5,31.1-2.1,37.2-8.5s2.4-43.9-1.4-46.8
				c-3.8-3-20.8,10.2-23.6,9.8c-2.8-0.5,2-4.3,0.3-7.9c-1.7-3.6-29.3,7.8-29.5,4.5c-0.2-3,5.6-6.6,5.8-9.3
				C435.9,357.4,415.6,363.8,412,368.6z"/>
			<circle class="st5" cx="430.6" cy="385.3" r="4.4"/>
			<circle class="st5" cx="462.6" cy="386.9" r="4.4"/>
			<path class="st5" d="M427.4,398.4c-0.2,0.2,6.4,9.3,22.3,8.6c10.6-0.4,18.4-7.8,18.2-8.5C467.7,397.9,427.7,398.2,427.4,398.4z"
				/>
			<g>

					<ellipse transform="matrix(0.9985 -5.424728e-02 5.424728e-02 0.9985 -20.6947 26.2731)" class="st6" cx="473.6" cy="394.3" rx="4.3" ry="2.1"/>
				<line class="st7" x1="472.8" y1="393.3" x2="471.6" y2="394.8"/>
				<line class="st7" x1="474.2" y1="393.3" x2="473" y2="394.8"/>
				<line class="st7" x1="475.5" y1="393.3" x2="474.4" y2="394.7"/>
			</g>
			<g>

					<ellipse transform="matrix(0.9985 -5.424728e-02 5.424728e-02 0.9985 -20.7471 23.4239)" class="st6" cx="421.1" cy="393.9" rx="4.3" ry="2.1"/>
				<line class="st7" x1="420.2" y1="392.8" x2="419.1" y2="394.3"/>
				<line class="st7" x1="421.7" y1="392.9" x2="420.5" y2="394.4"/>
				<line class="st7" x1="423" y1="392.8" x2="421.9" y2="394.3"/>
			</g>
			<polygon class="st8" points="436.4,399 437.3,402.4 438,398.9 			"/>
			<polygon class="st9" points="456.6,399 457.5,402.3 458.3,398.9 			"/>
		</g>
		<path class="st10" d="M544.9,413.2H89.4c-10.4,0-18.9-8.5-18.9-18.9v-290c0-10.4,8.5-18.9,18.9-18.9h455.5
			c10.4,0,18.9,8.5,18.9,18.9v290C563.8,404.8,555.4,413.2,544.9,413.2z"/>
		<path class="st11" d="M398.4,406.4c0,0.1,0,0.3,0,0.4c0.1,0.7,0.4,1.5,0.5,2.2c0.1,0.3,0.8,3.9-0.1,3.6c-1.4-0.5-3.3-2.6-3.5-1.7
			c-0.5,2.9-0.3,6.6-1.5,6.6c-1.2,0-3.3-7.1-2.9-6.2c0,0-1.5,7.4-2.7,7.4c-1.3,0-3.4-7.4-3.4-7.4s-3,6.4-3.9,5.6
			c-0.4-0.4-0.4-3.5-0.8-6.2c-0.1-1-4,3.3-3.8,1.2c0.3-3.1,1.1-6.3,2.4-9c0.3-0.7,0.7-1.4,1.3-1.8c0.7-0.6,1.6-0.7,2.5-0.9
			c4.3-0.6,8.8-0.2,12.7,1.7c0.9,0.4,1.8,1,2.4,1.8C398.5,404.6,398.4,405.4,398.4,406.4z"/>
		<path class="st11" d="M513.8,406.4c0.3,0.9,0.5,1.9,0.7,2.9c0.1,0.3,0.8,3.7-0.1,3.3c-1.4-0.5-3.3-2.6-3.5-1.7
			c-0.5,2.9-0.3,6.6-1.5,6.6c-1.2,0-3.3-7.1-2.9-6.2c0,0-1.5,7.4-2.7,7.4c-1.3,0-3.4-7.4-3.4-7.4s-3,6.4-3.9,5.6
			c-0.4-0.4-0.4-3.5-0.8-6.2c-0.1-1-4,3.3-3.8,1.2c0.2-1.8,0.7-3.6,1.1-5.3c0.4-1.8,0.2-4.1,1.5-5.5c0.8-0.8,1.9-1.1,3.1-1.3
			c2.7-0.4,5.5-0.4,8.1,0.2c2.6,0.7,5.1,2.1,6.9,4.1C513.1,404.9,513.5,405.6,513.8,406.4z"/>
		<rect x="116.9" y="130.1" class="st12" width="51.5" height="6.3"/>
		<rect x="116.9" y="148.9" class="st2" width="87.9" height="6.3"/>
		<rect x="116.9" y="164" class="st2" width="87.9" height="6.3"/>
		<rect x="116.9" y="179" class="st2" width="87.9" height="6.3"/>
		<rect x="352.9" y="130.1" class="st12" width="79.1" height="6.3"/>
		<rect x="257.5" y="290.8" class="st3" width="27.6" height="6.3"/>
		<rect x="257.5" y="305.8" class="st3" width="94.1" height="6.3"/>
		<rect x="257.5" y="320.9" class="st3" width="94.1" height="6.3"/>
		<rect x="257.5" y="336" class="st3" width="27.6" height="6.3"/>
		<rect x="257.5" y="351" class="st3" width="94.1" height="6.3"/>
		<rect x="116.9" y="221.7" class="st12" width="51.5" height="6.3"/>
		<rect x="116.9" y="240.5" class="st2" width="87.9" height="6.3"/>
		<rect x="116.9" y="255.6" class="st2" width="87.9" height="6.3"/>
		<rect x="116.9" y="270.7" class="st2" width="87.9" height="6.3"/>
		<rect x="116.9" y="308.3" class="st12" width="51.5" height="6.3"/>
		<rect x="116.9" y="327.2" class="st2" width="87.9" height="6.3"/>
		<rect x="116.9" y="342.2" class="st2" width="87.9" height="6.3"/>
		<rect x="116.9" y="357.3" class="st2" width="87.9" height="6.3"/>
		<path class="st2" d="M486,220.5H299c-1.4,0-2.5-1.1-2.5-2.5v-64c0-1.4,1.1-2.5,2.5-2.5h187c1.4,0,2.5,1.1,2.5,2.5v64
			C488.5,219.3,487.4,220.5,486,220.5z"/>
		<circle class="st13" cx="511.1" cy="185.9" r="8.8"/>
		<circle class="st13" cx="266.3" cy="186.6" r="8.8"/>
		<polyline class="st14" points="267.6,183.4 263.8,187.2 267.6,191 		"/>
		<polyline class="st14" points="509.8,182.8 513.6,186.6 509.8,190.3 		"/>

		<g class="speech_bubble">
			<path class="st1" d="M580.5,305.5c-7.5,8.5-17.5,12.6-28.6,13.7c-11.1,1.1-22,4.9-33.4,5.6c4.5-8.2,5.6-12.8,0.4-19.8
				c-4.1-5.5-7.3-10.8-8.9-17.6c-2.9-12.7,0.5-26.2,9-35.9c14.8-16.9,40.6-18.4,57.6-3.5C593.5,262.9,595.3,288.6,580.5,305.5z"/>
			<g>
				<polygon class="st15" points="561.2,257 561.2,262 556.2,262 556.2,267 551.2,267 551.2,272 546.2,272 546.2,277 546.2,277
					546.2,277 546.2,277 541.2,277 541.2,282.1 541.2,282.1 541.2,282.1 541.2,282.1 536.2,282.1 536.2,287.1 536.2,287.1
					536.2,287.1 536.2,287.1 531.2,287.1 531.2,292.1 531.2,292.1 531.2,292.1 526.1,292.1 526.1,297.1 531.2,297.1 560.5,297.1
					552.2,290.5 551.2,282.9 553,277.3 560.8,274.2 566.2,274.1 566.2,257 				"/>
				<path class="st11" d="M547.4,285.4c0-7.7,5.8-12.6,13-12.6c5,0,8.2,2.6,10,5.4l-4.3,2.3c-1.1-1.7-3.2-3.2-5.8-3.2
					c-4.5,0-7.7,3.4-7.7,8c0,4.6,3.2,8,7.7,8c2.2,0,4.2-0.9,5.1-1.9v-2.9h-6.4v-4.5h11.6v9.3c-2.5,2.8-6,4.6-10.3,4.6
					C553.3,298,547.4,293,547.4,285.4z"/>
			</g>
		</g>
	</g>
</g>
</svg>
