<?xml version="1.0" encoding="utf-8"?>
<!-- Generator: Adobe Illustrator 24.0.0, SVG Export Plug-In . SVG Version: 6.00 Build 0)  -->
<svg version="1.1" id="Layer_1" xmlns="http://www.w3.org/2000/svg" xmlns:xlink="http://www.w3.org/1999/xlink" x="0px" y="0px"
	 viewBox="0 0 635 500" style="enable-background:new 0 0 635 500;" xml:space="preserve">
<style type="text/css">
	.st0{fill:#F7F7F7;}
	.st1{fill:#C1DDEA;}
	.st2{fill:#FFFFFF;}
	.st3{fill:none;stroke:#1DB35F;stroke-width:3.8142;stroke-linecap:round;stroke-linejoin:round;stroke-miterlimit:10.0001;}
	.st4{fill:#1DB35F;}
	.st5{opacity:5.000000e-02;fill:#2B2B2B;enable-background:new    ;}
	.st6{fill:#2E70BE;}
	.st7{fill:#FFDB45;}
	.st8{fill:none;stroke:#FF9087;stroke-width:7.6284;stroke-miterlimit:10;}
	.st9{opacity:0.5;fill:#D0E0EA;enable-background:new    ;}
	.st10{fill:none;stroke:#30AABC;stroke-width:6.357;stroke-miterlimit:10;}
	.st11{opacity:5.000000e-02;}
	.st12{fill:#2B2B2B;}
	.st13{fill:#FF5F5F;}
	.st14{font-family:'ProximaNova-Black';}
	.st15{font-size:27.3006px;}
	.st16{fill:#C6EAFB;}
	.st17{fill:#6ECCF6;}
</style>
<g id="Layer_1_1_">
</g>
<g id="top_elements">
	<g>
		<rect class="st0" width="635" height="500"/>
		<path class="st1" d="M265.8,222.2l-2.1-5.2c-3.2-7.7-10.6-12.6-18.9-12.6H188c-11.6,0-21.1,9.5-21.1,21.2v147.1
			c0,11.6,9.5,21.2,21.1,21.2h238.1c11.6,0,21.1-9.5,21.1-21.2V257c0-10.2-8.3-18.5-18.5-18.5H290.1
			C279.4,238.5,269.9,232.1,265.8,222.2z"/>
		<g>
			<path class="st2" d="M224.6,235.4l-43.4,8.9c-6.2,1.3-12.3-2.7-13.5-8.9l-9-43.7c-1.3-6.2,2.7-12.3,8.9-13.5l43.4-8.9
				c6.2-1.3,12.3,2.7,13.5,8.9l9,43.7C234.8,228,230.8,234.1,224.6,235.4z"/>
			<g id="FKrkYc_1_">
				
					<rect x="171.8" y="189.1" transform="matrix(0.9795 -0.2015 0.2015 0.9795 -37.7847 43.6787)" class="st3" width="47.7" height="36.7"/>
				<g>
					<g>
						
							<rect x="174.8" y="198.3" transform="matrix(0.9795 -0.2015 0.2015 0.9795 -36.6437 40.3177)" class="st4" width="9.8" height="3.7"/>
						
							<rect x="176.2" y="205.1" transform="matrix(0.9795 -0.2015 0.2015 0.9795 -37.9849 40.7397)" class="st4" width="9.8" height="3.7"/>
						
							<rect x="177.6" y="211.9" transform="matrix(0.9795 -0.2015 0.2015 0.9795 -39.3262 41.1618)" class="st4" width="9.8" height="3.7"/>
						
							<rect x="179" y="218.6" transform="matrix(0.9795 -0.2015 0.2015 0.9795 -40.6481 41.5777)" class="st4" width="9.8" height="3.7"/>
					</g>
					<g>
						
							<rect x="188.6" y="195.4" transform="matrix(0.9795 -0.2015 0.2015 0.9795 -35.7759 43.036)" class="st4" width="9.8" height="3.7"/>
						
							<rect x="190" y="202.2" transform="matrix(0.9795 -0.2015 0.2015 0.9795 -37.1171 43.4581)" class="st4" width="9.8" height="3.7"/>
						
							<rect x="191.4" y="209" transform="matrix(0.9795 -0.2015 0.2015 0.9795 -38.4583 43.8801)" class="st4" width="9.8" height="3.7"/>
						
							<rect x="192.8" y="215.8" transform="matrix(0.9795 -0.2015 0.2015 0.9795 -39.7996 44.3021)" class="st4" width="9.8" height="3.7"/>
					</g>
					<g>
						
							<rect x="202.4" y="192.6" transform="matrix(0.9795 -0.2015 0.2015 0.9795 -34.9274 45.7604)" class="st4" width="9.8" height="3.7"/>
						
							<rect x="203.8" y="199.4" transform="matrix(0.9795 -0.2015 0.2015 0.9795 -36.2686 46.1825)" class="st4" width="9.8" height="3.7"/>
						
							<rect x="205.2" y="206.2" transform="matrix(0.9795 -0.2015 0.2015 0.9795 -37.6098 46.6045)" class="st4" width="9.8" height="3.7"/>
						
							<rect x="206.6" y="213" transform="matrix(0.9795 -0.2015 0.2015 0.9795 -38.951 47.0265)" class="st4" width="9.8" height="3.7"/>
					</g>
				</g>
			</g>
		</g>
		<path class="st5" d="M426.1,393.9H198.6c-10.2,0-18.5-8.3-18.5-18.5v-95.1c0-10.2,8.3-18.5,18.5-18.5h209
			c10.2,0,18.5,8.3,18.5,18.5V393.9z"/>
		<g>
			<path class="st2" d="M425.1,366.4l-97.4-46.2c-5.3-2.5-7.6-8.9-5.1-14.2l63.9-134.8c2.5-5.3,8.9-7.6,14.2-5.1l97.4,46.2
				c5.3,2.5,7.6,8.9,5.1,14.2l-63.9,134.8C436.8,366.7,430.5,368.9,425.1,366.4z"/>
			
				<rect x="424.3" y="189.9" transform="matrix(0.4286 -0.9035 0.9035 0.4286 35.5078 520.3533)" class="st6" width="9.6" height="84.5"/>
			
				<rect x="414.9" y="209.8" transform="matrix(0.4286 -0.9035 0.9035 0.4286 12.1414 523.2241)" class="st6" width="9.6" height="84.5"/>
			
				<rect x="433.8" y="170.1" transform="matrix(0.4286 -0.9035 0.9035 0.4286 58.7811 517.6017)" class="st6" width="9.6" height="84.5"/>
			
				<rect x="405.5" y="229.7" transform="matrix(0.4286 -0.9035 0.9035 0.4286 -11.2251 526.0947)" class="st6" width="9.6" height="84.5"/>
			
				<rect x="396.1" y="249.6" transform="matrix(0.4286 -0.9035 0.9035 0.4286 -34.5916 528.9655)" class="st6" width="9.6" height="84.5"/>
			
				<rect x="386.6" y="269.4" transform="matrix(0.4286 -0.9035 0.9035 0.4286 -57.8648 531.7171)" class="st6" width="9.6" height="84.5"/>
		</g>
		<path class="st5" d="M393.8,266.7h-126c-6.6,0-12-5.4-12-12V219c0-6.6,5.4-12,12-12h126c6.6,0,12,5.4,12,12v35.7
			C405.9,261.3,400.4,266.7,393.8,266.7z"/>
		<path class="st2" d="M382.4,265.4h-126c-6.6,0-12-5.4-12-12v-35.7c0-6.6,5.4-12,12-12h126c6.6,0,12,5.4,12,12v35.7
			C394.4,260,389,265.4,382.4,265.4z"/>
		<rect x="274.9" y="220.9" class="st7" width="97.9" height="7.6"/>
		<rect x="293.6" y="234.9" class="st7" width="79.3" height="7.6"/>
		<ellipse class="st8" cx="68.3" cy="336.4" rx="10.8" ry="11.2"/>
		<ellipse class="st4" cx="79.7" cy="163.5" rx="10.8" ry="11.2"/>
		<ellipse class="st9" cx="518.4" cy="354.2" rx="10.8" ry="11.2"/>
		<ellipse class="st9" cx="384.9" cy="125.4" rx="10.8" ry="11.2"/>
		<ellipse class="st10" cx="566.7" cy="261.4" rx="10.8" ry="11.2"/>
		<g class="st11">
			<circle class="st12" cx="233.8" cy="198.7" r="33.8"/>
		</g>
		<g>
			<circle class="st2" cx="236.1" cy="193.1" r="32.1"/>
			<text transform="matrix(0.9259 -0.3778 0.3778 0.9259 223.1481 208.2238)" class="st13 st14 st15">LTI</text>
		</g>
		<path class="st16" d="M253.7,237.2l-1.9-4.7c-2.8-7-9.3-11.5-16.6-11.5h-49.9c-10.2,0-18.5,8.7-18.5,19.3v134.3
			c0,10.6,8.3,19.3,18.5,19.3h209c10.2,0,18.5-8.7,18.5-19.3V269c0-9.3-7.3-16.9-16.2-16.9H275C265.7,252,257.2,246.2,253.7,237.2z"
			/>
		<g>
			<circle class="st2" cx="299" cy="320.7" r="35"/>
			<g>
				<polygon class="st17" points="309,300.8 309,305.2 304.6,305.2 304.6,309.6 300.2,309.6 300.2,314 295.8,314 295.8,318.5 
					295.8,318.5 295.8,318.5 295.8,318.5 291.4,318.5 291.4,322.9 291.4,322.9 291.4,322.9 291.4,322.9 287,322.9 287,327.3 
					287,327.3 287,327.3 287,327.3 282.6,327.3 282.6,331.7 282.6,331.7 282.6,331.7 278.2,331.7 278.2,336.1 282.6,336.1 
					308.4,336.1 301.1,330.3 300.2,323.6 301.8,318.7 308.6,315.9 313.4,315.9 313.4,300.8 				"/>
				<path class="st6" d="M296.9,325.8c0-6.8,5.1-11.1,11.4-11.1c4.4,0,7.2,2.2,8.8,4.8l-3.8,2.1c-1-1.5-2.8-2.8-5.1-2.8
					c-3.9,0-6.7,3-6.7,7s2.8,7,6.7,7c1.9,0,3.7-0.8,4.5-1.6v-2.6H307v-4h10.2v8.2c-2.2,2.4-5.2,4-9.1,4
					C302,336.9,296.9,332.5,296.9,325.8z"/>
			</g>
		</g>
	</g>
</g>
</svg>
