<?xml version="1.0" encoding="utf-8"?>
<!-- Generator: Adobe Illustrator 24.0.0, SVG Export Plug-In . SVG Version: 6.00 Build 0)  -->
<svg version="1.1" id="Layer_1" xmlns="http://www.w3.org/2000/svg" xmlns:xlink="http://www.w3.org/1999/xlink" x="0px" y="0px"
	 viewBox="0 0 635 500" style="enable-background:new 0 0 635 500;" xml:space="preserve">
<style type="text/css">
	.st0{fill:#F7F7F7;}
	.st1{fill:none;stroke:#BFD5E0;stroke-width:3.7112;stroke-linecap:round;stroke-linejoin:round;stroke-miterlimit:10;}
	.st2{fill:#5AAF6F;stroke:#5AAF6F;stroke-width:4.9482;stroke-linecap:round;stroke-linejoin:round;stroke-miterlimit:10;}
	.st3{fill:#CEE7F2;}
	.st4{fill:none;stroke:#182445;stroke-width:4.9482;stroke-linecap:round;stroke-miterlimit:10;}
	.st5{fill:#FFFFFF;}
	
		.st6{fill:none;stroke:#E8F7FD;stroke-width:3.7112;stroke-linecap:round;stroke-linejoin:round;stroke-miterlimit:10;stroke-dasharray:9.8965;}
	.st7{fill:#D1EEFC;}
	
		.st8{fill:none;stroke:#6ECCF6;stroke-width:3.7112;stroke-linecap:round;stroke-linejoin:round;stroke-miterlimit:10;stroke-dasharray:9.8965;}
	.st9{fill:#2E70BE;stroke:#2E70BE;stroke-width:4.9482;stroke-linecap:round;stroke-linejoin:round;stroke-miterlimit:10;}
	.st10{fill:none;stroke:#F37C2B;stroke-width:3.7112;stroke-linecap:round;stroke-linejoin:round;stroke-miterlimit:10;}
	.st11{fill:#F37C2B;stroke:#F37C2B;stroke-width:3.7112;stroke-linecap:round;stroke-linejoin:round;stroke-miterlimit:10;}
</style>
<g id="Layer_1_1_">
</g>
<g id="top_elements">
	<g>
		<rect class="st0" width="635" height="500"/>
		<g>
			<line class="st1" x1="463.7" y1="300.6" x2="463.7" y2="260.2"/>
			<path class="st2" d="M467.6,262.1c0,0,3.8-4.4,9.3,0s9.8,0.5,9.8,0.5V273c0,0-5.9,3-9.2-0.8c-3.2-3.7-10,0.3-10,0.3v-10.4H467.6z
				"/>
		</g>
		<g id="graphics_5_">
			<polygon class="st3" points="577.5,405.5 465.3,295.7 356,405.1 545.7,405.1 			"/>
			<g>
				<path class="st4" d="M361.4,255.4"/>
				<path class="st4" d="M361.4,270.8"/>
			</g>
			<polygon class="st5" points="465.2,294.8 440.5,319.5 465.2,344.3 490,319.5 			"/>
		</g>
		<path class="st6" d="M544.1,404.6c4.6-49.3-104.8-20.4-80.2-72.7c11.3-24,0.1-36,0.1-36"/>
		<g id="graphics_2_">
			<polygon class="st7" points="499.6,405.5 278.1,184 57.5,404.6 440.3,404.6 			"/>
			<polygon class="st5" points="278,182 228,232 278,282 328,232 			"/>
		</g>
		<path class="st5" d="M210,280h-50.4c2.5,0,4.6-1.4,4.6-3.2s-2.1-3.2-4.6-3.2H68c-2.5,0-4.6,1.4-4.6,3.2s2.1,3.2,4.6,3.2h50.4
			c2.5,0,4.6,1.4,4.6,3.2c0,1.8-2.1,3.2-4.6,3.2H102c-2.5,0-4.6,1.4-4.6,3.2s2.1,3.2,4.6,3.2h91.7c2.5,0,4.6-1.4,4.6-3.2
			s-2.1-3.2-4.6-3.2H210c2.5,0,4.6-1.4,4.6-3.2S212.6,280,210,280z"/>
		<path class="st5" d="M561.3,204.5h-50.4c2.5,0,4.6-1.4,4.6-3.2s-2.1-3.2-4.6-3.2h-91.7c-2.5,0-4.6,1.4-4.6,3.2s2.1,3.2,4.6,3.2
			h50.4c2.5,0,4.6,1.4,4.6,3.2s-2.1,3.2-4.6,3.2h-16.4c-2.5,0-4.6,1.4-4.6,3.2s2.1,3.2,4.6,3.2H545c2.5,0,4.6-1.4,4.6-3.2
			s-2.1-3.2-4.6-3.2h16.4c2.5,0,4.6-1.4,4.6-3.2C565.9,205.9,563.9,204.5,561.3,204.5z"/>
		<path class="st8" d="M137,403.3c0,0,69-0.7,95.2-39.2c37.6-55.3,122.3-28.1,126.3-70.8c4.6-49.3-112.4-23.1-87.8-75.4
			c11.3-24,7.7-37,7.7-37"/>
		<g>
			<line class="st1" x1="278.7" y1="139.5" x2="278.7" y2="188"/>
			<polygon class="st9" points="283.2,141.4 307.4,151.8 283.2,159.2 			"/>
		</g>
		<circle class="st10" cx="236.3" cy="357.9" r="3.7"/>
		<circle class="st10" cx="268.4" cy="239.1" r="3.7"/>
		<circle class="st10" cx="356.2" cy="279.9" r="3.7"/>
		<g>
			<line class="st1" x1="134" y1="355.1" x2="134" y2="403.6"/>
			<polygon class="st11" points="138.5,357 162.7,367.4 138.5,374.7 			"/>
		</g>
	</g>
</g>
</svg>
