<svg xmlns="http://www.w3.org/2000/svg" xmlns:xlink="http://www.w3.org/1999/xlink" viewBox="0 0 189.17 192.71"><defs><style>.cls-1,.cls-8{fill:none;}.cls-2{fill:#fff;}.cls-3,.cls-4{fill:#4c7eba;}.cls-4{stroke:#fbfbfb;}.cls-4,.cls-7,.cls-8,.cls-9{stroke-miterlimit:10;}.cls-5{fill:#1d2348;}.cls-6{fill:#dd5463;}.cls-7{fill:#f0bdcf;stroke:#f2bfd1;stroke-width:0.92px;}.cls-8,.cls-9{stroke:#f1f1f1;}.cls-9{fill:#1b2342;}.cls-10{clip-path:url(#clip-path);}.cls-11{clip-path:url(#clip-path-2);}</style><clipPath id="clip-path"><path class="cls-1" d="M142.18,175.36c.13,4.08,0,8.2-1.9,11.77A7,7,0,0,1,139,189c-3,2.84-9.81,1.37-13.46,1.18q-7.76-.41-15.47-1.35a4.83,4.83,0,0,1-3.25-1.27,5,5,0,0,1-.76-3c-.2-3.71-1.16-7.54-3.68-10.32s-6.88-4.19-10.29-2.54c-3.06,1.49-4.57,4.87-5.53,8.07-.58,1.9-1,5.91-2.82,7.17a3.32,3.32,0,0,1-1.07.42c-4.62,1.16-9.42,1.3-14.22,1.43-5.53.15-13.37-.32-17.64-4.2-2.45-2.24-2.08-4.85-2.5-7.78a149.11,149.11,0,0,1-1.3-21c0-5.33-1.29-14.1,2.46-18.53,3.32-3.93,7.41-2.44,11.9-2.47l17.28-.12a36.73,36.73,0,0,0,10.28-1.67c4.53-1.23,9.63-1.29,14.29-1.82,9.14-1.05,18.45-2.09,27.48-.36,4.22.82,7,1.76,8.91,5.7,2.27,4.69,2.63,10.4,2.7,15.49C142.44,159.86,141.94,167.63,142.18,175.36Z"/></clipPath><clipPath id="clip-path-2"><path class="cls-1" d="M141.82,175.38c.12,4.07,0,8.19-1.9,11.76a7.38,7.38,0,0,1-1.28,1.9c-2.95,2.83-9.79,1.37-13.45,1.18-5.16-.27-10.32-.72-15.45-1.35a4.85,4.85,0,0,1-3.25-1.27,5,5,0,0,1-.76-3c-.2-3.71-1.16-7.54-3.68-10.31s-6.88-4.19-10.28-2.54c-3,1.48-4.57,4.86-5.53,8.06-.57,1.91-1,5.91-2.81,7.17a3.07,3.07,0,0,1-1.08.41c-4.61,1.17-9.41,1.31-14.2,1.44-5.53.14-13.37-.32-17.63-4.2-2.45-2.24-2.08-4.84-2.5-7.78a148.83,148.83,0,0,1-1.3-21c0-5.33-1.29-14.09,2.46-18.52,3.32-3.92,7.4-2.44,11.89-2.47l17.26-.12a36.66,36.66,0,0,0,10.28-1.66c4.53-1.23,9.62-1.29,14.28-1.83,9.13-1,18.44-2.09,27.46-.35,4.22.81,7,1.75,8.91,5.69,2.26,4.69,2.62,10.39,2.7,15.49C142.07,159.89,141.57,167.65,141.82,175.38Z"/></clipPath></defs><title>Asset 1</title><g id="Layer_2" data-name="Layer 2"><g id="图层_1" data-name="图层 1"><path class="cls-2" d="M142.18,175.31c.13,4.09,0,8.22-1.9,11.81A7,7,0,0,1,139,189c-3,2.84-9.8,1.37-13.45,1.18q-7.75-.41-15.45-1.35a4.84,4.84,0,0,1-3.25-1.28,5,5,0,0,1-.76-3c-.21-3.72-1.17-7.57-3.69-10.36s-6.87-4.2-10.28-2.54c-3,1.49-4.56,4.88-5.52,8.09-.58,1.91-1,5.93-2.82,7.2a3.23,3.23,0,0,1-1.07.42c-4.62,1.17-9.42,1.3-14.21,1.43-5.53.15-13.36-.31-17.62-4.21-2.46-2.25-2.08-4.87-2.5-7.81a148.61,148.61,0,0,1-1.3-21.08c0-5.35-1.3-14.14,2.45-18.6,3.32-3.94,7.4-2.44,11.9-2.47l17.26-.13A36,36,0,0,0,89,132.87c4.53-1.23,9.62-1.29,14.28-1.83,9.13-1,18.44-2.09,27.46-.35,4.21.82,7,1.76,8.91,5.71,2.26,4.71,2.62,10.44,2.69,15.55C142.44,159.76,141.94,167.55,142.18,175.31Z"/><g id="Yeti_Arm"><path class="cls-2" d="M67.19,67c-2.6.56-3.8,1.77-5.69,2.58-2.79,1.18-5.42,0-7.85-.35S46.48,66.7,42.7,64.72A45.45,45.45,0,0,1,37.51,61c-.49-.39-1.41-4.32-1.6-1.54,0,.24-.17,0-.34-.11l-.4-.36c-.25-.24,0-4.14-1.06-1.08-.22.64-.4-.3-.59-.75-.33-.8-1.86-8.34-2.54-3.4-.53,3.91-5.36-7.27-6.23-9-1.12-2.3-.55-2-3.75-1.63-3.5.4-14.36.49-17.43,8.47-.43,1.1,2.16,7.91,2.46,8.66.08.2.22.53.4.94s-11.32-3,1.49,4.3c1.56.88,3.07,2.07,1.88,2-.2,0-2.72-.23-2.53.37.14.4,4.22,2.74,4.43,3.11.41.71-2.64,0-2.18.68s4.21,2.64,4.74,3.34a76.07,76.07,0,0,0,8.37,9.11,51.9,51.9,0,0,0,6.83,5c.84.54-2.74,1.57-1.43,1.94,1.48.42,5.53.62,6.29,1.09,8.89,5.42,17.56,12.37,21.91,14.09,7,3.33,23.24.68,23.24.68s4.47-14.25,3.78-22S71.44,66.07,67.19,67Z"/><path class="cls-3" d="M25.06,44.75s.12-8-1.18-7-2.8,3.84-3.22,2.91c-1.37-3-2.23-7.25-3.53-6.86s-1.5,8.87-1.33,7.68c0,0-3.77-7.74-5-7.39-1.41.4-1.5,9.12-1.5,9.12s-5.09-6.18-5.81-5c-.33.54.56,4,1,7.09C4.62,46.42-.79,42.78.1,45.1c.78,2,3.44,7,3.44,7Z"/></g><g id="Yeti_Arm-2" data-name="Yeti_Arm"><path class="cls-2" d="M121,69.94c2.63.62,3.83,1.87,5.74,2.72,2.81,1.25,5.49.1,7.94-.19s7.28-2.37,11.12-4.29a46,46,0,0,0,5.28-3.67c.49-.38,1.45-4.33,1.63-1.52,0,.24.17,0,.34-.1l.4-.36c.26-.24.05-4.18,1.09-1.06.21.65.41-.3.6-.75.34-.8,1.94-8.37,2.59-3.38.52,4,5.48-7.21,6.37-9,1.15-2.29.57-2,3.8-1.56,3.55.47,14.53.8,17.59,8.91.42,1.12-2.25,7.93-2.56,8.67-.08.21-.22.53-.41.94S194,62.56,181,69.62c-1.59.87-3.13,2-1.93,2,.21,0,2.77-.18,2.56.42-.13.41-4.28,2.67-4.5,3-.42.72,2.68,0,2.21.73s-4.29,2.58-4.82,3.27a74.47,74.47,0,0,1-8.54,9A50.19,50.19,0,0,1,159.05,93c-.84.52,2.76,1.64,1.44,2-1.5.39-5.6.51-6.37,1-9,5.28-17.85,12.1-22.27,13.74-7.12,3.21-23.52.2-23.52.2s-4.43-14.46-3.67-22.24S116.73,68.94,121,69.94Z"/><path class="cls-3" d="M163.81,48.41s-.06-8.06,1.25-7,2.8,3.94,3.23,3c1.41-3,2.31-7.27,3.62-6.84s1.47,9,1.3,7.77c0,0,3.87-7.72,5.13-7.35,1.42.43,1.45,9.23,1.45,9.23s5.2-6.13,5.92-4.94c.33.55-.59,4-1.06,7.13-.17,1.17,5.33-2.39,4.42-.07-.81,2.05-3.53,7-3.53,7Z"/></g><g id="Yeti_Body"><path class="cls-2" d="M51,161.92a14.92,14.92,0,0,1-2.21-1.25,1.88,1.88,0,0,1-.61-.58,2.15,2.15,0,0,1,0-1.44c.47-2.67-.31-5.39-.66-8.08-1-7.65,1.34-15.26,2-22.85s.68-15.41,1.49-23.09l2.87-27c.3-.75.71-4.23,1.61-13,.09-.91-2.85,1.35-2.74.42s2.94-4,3.06-4.93c.16-1.21-4.87,1.64-3.7.27.59-.69,4.53-5.71,4.69-6.6L57,52.06c2.4-12,7.35-21.92,7.83-22.23-1.65-.62-13.54-5.14-13.31-7s15.76-8.11,15.76-8.11S55.28,4.51,56.88,2.26c.74-1,11.88.73,25.24,3.45.73.15-6.9-12,4.09-1.3C87.45,5.62,88,7,88.39,7c14,2.19,26.28,3.48,34.49,11a40.41,40.41,0,0,1,12.4,20.86,45,45,0,0,1,.89,10.69c0,.51,3.28,3,3.37,4.12,0,.5-3.45-1.6-3.47-1.1,0,.33,2.09,2.36,2.07,2.69s-2.29-.68-2.31-.35c-.38,5.76-.93,10.46-.6,12.56.61,3.92,3.12,7.38,3.85,11.14.95,4.95.06,10.32.11,15.42.07,7.95,1.34,15.76,1.73,23.65.38,7.61,0,15.62.18,23.39.16,7.94,1.57,15.37-.67,23.18a3.68,3.68,0,0,1-1,1.84,3.91,3.91,0,0,1-3.07.49c-13.05-1.61-25.63-4.78-38.8-5.21-6.71-.23-13.37-.75-20-1.28C68.54,159.38,59.6,165.87,51,161.92Z"/><path class="cls-4" d="M71.71,42.75c-2.59,3.82-4,21.48-1,26.5s5.14,9.07,25.77,8.62,21-2.3,24.92-6.88.46-30.55-2.16-32.52-13.79,7.68-15.71,7.43,1.25-3,0-5.5-19.6,6.23-19.84,3.91c-.21-2.1,3.59-4.75,3.7-6.65C87.58,34.32,74.08,39.25,71.71,42.75Z"/><ellipse class="cls-5" cx="84.75" cy="53.79" rx="2.98" ry="3.06"/><ellipse class="cls-5" cx="106.47" cy="54.05" rx="2.98" ry="3.06"/><path class="cls-5" d="M83,63c-.15.17,4.59,6.28,15.31,5.4,7.17-.59,12.26-5.94,12.09-6.4S83.12,62.86,83,63Z"/><ellipse class="cls-6" cx="114.08" cy="58.95" rx="2.94" ry="1.45" transform="translate(-5.19 11.37) rotate(-5.58)"/><line class="cls-7" x1="113.47" y1="58.24" x2="112.71" y2="59.31"/><line class="cls-7" x1="114.45" y1="58.23" x2="113.7" y2="59.3"/><line class="cls-7" x1="115.35" y1="58.14" x2="114.6" y2="59.21"/><ellipse class="cls-6" cx="78.56" cy="60.05" rx="2.94" ry="1.45" transform="translate(-5.46 7.92) rotate(-5.58)"/><line class="cls-7" x1="77.95" y1="59.34" x2="77.19" y2="60.41"/><line class="cls-7" x1="78.93" y1="59.33" x2="78.18" y2="60.4"/><line class="cls-7" x1="79.83" y1="59.24" x2="79.08" y2="60.31"/><polygon class="cls-8" points="89.03 63.17 89.73 65.51 90.13 63.08 89.03 63.17"/><polygon class="cls-9" points="102.72 62.61 103.42 64.94 103.82 62.52 102.72 62.61"/></g><g class="cls-10"><circle class="cls-3" cx="55.51" cy="186.79" r="2.97"/><circle class="cls-3" cx="62.94" cy="188.53" r="2.97"/><circle class="cls-3" cx="70.37" cy="188.79" r="2.97"/><circle class="cls-3" cx="78.37" cy="187.79" r="2.97"/></g><g class="cls-11"><circle class="cls-3" cx="111.88" cy="188.96" r="2.92"/><circle class="cls-3" cx="119.18" cy="189.69" r="2.92"/><circle class="cls-3" cx="126.48" cy="189.79" r="2.92"/><circle class="cls-3" cx="134.42" cy="189.79" r="2.92"/></g><path class="cls-2" d="M140.88,145c.9-.76.36-10.42.46-11.21,0-.23,1,1,1,1s9.14,8.48,1.41-4.06c-.95-1.54-1.7-3.3-.68-2.69.17.1,2.28,1.52,2.39.9.08-.42-2.38-4.43-2.38-4.86,0-.82,2.3,1.29,2.24.46s-2.43-4.35-2.55-5.21a75.71,75.71,0,0,0-3-12"/><path class="cls-2" d="M139.34,151.76c-.24,1,1.83,2.22,1.59,3.21a3.49,3.49,0,0,1-.24.71c-.12.22-.29.41-.42.63a3.55,3.55,0,0,0-.34,1.12,24.43,24.43,0,0,0-.55,5.1,8.38,8.38,0,0,0,1.7,4.88c.19-.79.33-1.58.44-2.38,0-.41.08-.83.13-1.24a2.24,2.24,0,0,1,.1-.7c.31-.42.88.75,1.3.74a.2.2,0,0,0,.11,0,.21.21,0,0,0,.05-.17c0-.89-.74-1.66-1.09-2.45-.45-1,.74-.15,1.08.11.54.41.16-.48.06-.95-.18-.85-3.16-7.94.18-4.24,2.65,2.93-2.81-10.39-3.1-12.34C139.56,146.05,139.93,149.41,139.34,151.76Z"/><path class="cls-2" d="M49.14,149.76c.25,1-1.83,2.22-1.58,3.21a3,3,0,0,0,.24.71c.12.22.29.41.41.63a3.31,3.31,0,0,1,.34,1.12,23.77,23.77,0,0,1,.55,5.1,8.37,8.37,0,0,1-1.69,4.88A21.64,21.64,0,0,1,47,163c-.06-.41-.08-.83-.13-1.24a2.57,2.57,0,0,0-.1-.7c-.31-.42-.89.75-1.31.74a.2.2,0,0,1-.11,0,.25.25,0,0,1,0-.17c0-.89.75-1.66,1.09-2.45.46-1-.73-.15-1.08.11-.54.41-.15-.48-.06-.95.18-.85,3.17-7.94-.17-4.24-2.65,2.93,2.81-10.39,3.09-12.34C48.92,144.05,48.56,147.41,49.14,149.76Z"/><path class="cls-2" d="M51.9,134.32c-.9-.76-1.9-8-2-8.78,0-.22-.06-.57-.1-1S41.3,132.59,49,120c.95-1.53,1.7-3.3.68-2.69-.18.11-2.28,1.52-2.39.9-.08-.42,2.38-4.43,2.38-4.85,0-.83-2.31,1.29-2.24.45s2.42-4.35,2.55-5.21a74.8,74.8,0,0,1,3-12"/><path class="cls-2" d="M84.63,170c-.34,1,1.6,2.4,1.26,3.35a3.3,3.3,0,0,1-.31.69c-.14.21-.33.38-.48.58a3.49,3.49,0,0,0-.45,1.09,24,24,0,0,0-1.05,5c-.11,1.71-1.32,3.34-.39,4.78.27-.76,0-1.2.2-2,.1-.41.18-3.46,1.3-2.89.13.07.89,1.1,1.19.89s.81.84,1.22.86a.14.14,0,0,0,.11,0,.19.19,0,0,0,.07-.16c.1-.88-.57-1.72-.84-2.54-.35-1.07.74-.08,1.06.21.5.46.21-.46.16-.94-.1-.86-3.15-10.07-.19-6.06,2.35,3.18-1-8.76-1.07-10.73C85.42,164.36,85.44,167.75,84.63,170Z"/><path class="cls-2" d="M105,167.87c.46.9-1.27,2.59-.8,3.49a2.93,2.93,0,0,0,.4.63c.17.19.38.34.55.52a3.52,3.52,0,0,1,.59,1,24.06,24.06,0,0,1,1.72,4.84c.34,1.68,1.76,3.13,1,4.68-.37-.72-.18-1.19-.47-1.94-.15-.39-.64-3.41-1.67-2.69-.12.09-.74,1.21-1.06,1-.47-.24-.69.94-1.1,1h-.11a.21.21,0,0,1-.09-.15c-.22-.87.34-1.79.49-2.64.2-1.1-.75,0-1,.36-.43.52-.27-.43-.28-.91,0-.87,1.76-10.41-.63-6-1.9,3.46-.21-8.82-.38-10.78C103.42,162.37,103.86,165.72,105,167.87Z"/><path class="cls-3" d="M53,185.7a.23.23,0,0,0-.29.07c-.29.6-1,2.55,2.26,3.34,3.84.94,22.3,1.69,25.36.65.71-.25.89-1.38,1-2,.07-.38-.53,0-1,0C76.32,187.93,59,188.75,53,185.7Z"/><path class="cls-3" d="M137.34,189.76s1.45,1.91-2.52,2.33-24.49-1.39-25.36-2.36a2,2,0,0,1-.08-2.27S128.43,191,137.34,189.76Z"/></g></g></svg>